<?xml version="1.0" encoding="UTF-8"?>
<svg id="Capa_2" data-name="Capa 2" xmlns="http://www.w3.org/2000/svg" xmlns:xlink="http://www.w3.org/1999/xlink" viewBox="0 0 995 782.24">
  <defs>
    <style>
      .cls-1 {
        fill: #c9effe;
      }

      .cls-1, .cls-2, .cls-3 {
        stroke-width: 0px;
      }

      .cls-2 {
        fill: url(#Degradado_sin_nombre_11);
      }

      .cls-3 {
        fill: #3de4fe;
      }
    </style>
    <linearGradient id="Degradado_sin_nombre_11" data-name="Degradado sin nombre 11" x1="144.72" y1="750.6" x2="850.16" y2="45.16" gradientUnits="userSpaceOnUse">
      <stop offset="0" stop-color="#30b4c5"/>
      <stop offset=".13" stop-color="#32bdc4"/>
      <stop offset=".35" stop-color="#38d6c2"/>
      <stop offset=".57" stop-color="#40f6c0"/>
      <stop offset=".87" stop-color="#42fec0"/>
      <stop offset=".99" stop-color="#3bdfc1"/>
    </linearGradient>
  </defs>
  <g id="Capa_2-2" data-name="Capa 2">
    <g>
      <polyline class="cls-2" points="0 589.67 19.38 518.4 26.86 490.89 45.92 420.86 53.4 393.35 59.52 370.84 65.65 348.33 72.43 323.32 76.53 308.32 85.36 275.8 92.83 248.29 96.91 233.29 126.17 125.75 132.98 100.74 152.01 30.71 159.49 3.2 411.46 3.2 431.31 30.71 447.27 52.79 481.91 100.74 499.96 125.75 506.77 100.74 536.75 100.74 563.81 100.74 578.37 100.74 597.43 30.71 604.9 3.2 605.78 0 624.79 .25 655.62 .68 673.05 .9 700.46 1.28 745.31 1.88 842.49 3.2 860.72 30.71 907.14 100.74 923.72 125.75 967.01 191.07 995 233.29 990.92 248.29 983.45 275.8 974.59 308.32 970.52 323.32 963.71 348.33 957.59 370.84 951.48 393.35 944.01 420.86 924.95 490.89 917.47 518.4 898.09 589.67 878.36 662.2 871.55 687.21 851.5 760.99 845.72 782.24 806.25 782.24 630.64 782.24 609.58 760.99 554.11 704.99 536.48 687.21 448.41 687.21 427.95 662.2 393.05 782.24 378.47 782.24 351.43 782.24 321.42 782.24 248.89 782.24 199.58 782.24 176.37 782.24 156.91 760.99 99.84 698.69 89.33 687.21 76.7 673.43 66.43 662.2 24.63 616.58 0 589.67"/>
      <polygon class="cls-3" points="636.41 760.99 495.09 590.92 683.71 590.92 811.26 760.99 636.41 760.99"/>
      <polygon class="cls-3" points="357.21 760.99 182.14 760.99 117.47 687.21 106.42 674.6 106.42 674.58 95.54 662.2 83.51 648.47 31.96 589.67 228.74 589.67 245.77 612.38 281.96 660.65 283.13 662.2 301.89 687.21 335.18 731.6 335.18 731.63 357.21 760.99"/>
      <polygon class="cls-1" points="248.12 518.4 228.74 589.67 31.96 589.67 51.34 518.4 58.82 490.89 77.85 420.86 77.88 420.86 85.36 393.35 91.46 370.84 97.59 348.33 165.11 348.33 158.98 370.84 152.88 393.35 145.4 420.86 145.38 420.86 126.35 490.89 118.87 518.4 248.12 518.4"/>
      <polygon class="cls-1" points="274.65 420.86 255.6 490.89 156.36 490.89 175.39 420.86 274.65 420.86"/>
      <polygon class="cls-1" points="516.19 275.8 507.37 308.32 503.29 323.32 503.26 323.32 496.49 348.33 484.23 393.35 476.75 420.86 457.72 490.89 457.7 490.96 450.39 490.89 430.71 490.68 400.8 490.38 328.47 489.63 347.18 420.86 354.66 393.35 360.79 370.84 288.26 370.84 282.13 393.35 182.87 393.35 195.12 348.33 201.93 323.32 104.39 323.32 108.47 308.32 117.32 275.8 124.8 248.29 128.87 233.29 158.11 125.75 427.44 125.75 398.18 233.29 394.1 248.29 386.62 275.8 516.19 275.8"/>
      <polygon class="cls-1" points="164.92 100.74 361.71 100.74 380.75 30.71 183.96 30.71 164.92 100.74"/>
      <polygon class="cls-1" points="495.09 248.29 523.68 248.29 639.1 125.75 529.97 125.75 495.09 248.29"/>
      <polygon class="cls-1" points="605.78 248.29 835.01 30.71 775.84 248.29 605.78 248.29"/>
      <polygon class="cls-3" points="775.84 248.29 935.13 308.35 955.54 233.29 835.01 30.71 775.84 248.29"/>
      <polygon class="cls-1" points="597.75 99.7 673.69 99.7 737.47 30.71 616.5 30.71 597.75 99.7"/>
      <polygon class="cls-3" points="768.36 275.8 924.26 348.33 811.26 760.99 683.71 590.92 768.36 275.8"/>
      <polygon class="cls-1" points="580.79 275.8 495.09 590.92 683.71 590.92 768.36 275.8 580.79 275.8"/>
      <polygon class="cls-3" points="520.72 662.2 444.77 662.2 431.19 642.04 420.81 626.64 401.53 598.03 395.9 589.67 380.14 566.31 347.86 518.4 329.32 490.89 328.47 489.63 400.8 490.38 430.71 490.68 450.39 490.89 457.7 490.96 469.03 502.84 483.88 518.4 463.45 589.67 464.22 590.65 464.22 590.67 487.23 619.78 487.23 619.81 500.26 636.29 520.72 662.2"/>
    </g>
  </g>
</svg>