<?xml version="1.0" encoding="UTF-8"?>
<svg id="Capa_2" data-name="Capa 2" xmlns="http://www.w3.org/2000/svg" viewBox="0 0 2818 479.88">
  <defs>
    <style>
      .cls-1 {
        fill: #01426a;
      }

      .cls-1, .cls-2, .cls-3, .cls-4, .cls-5, .cls-6, .cls-7, .cls-8, .cls-9, .cls-10, .cls-11, .cls-12, .cls-13, .cls-14, .cls-15, .cls-16, .cls-17, .cls-18, .cls-19, .cls-20, .cls-21, .cls-22, .cls-23, .cls-24, .cls-25, .cls-26, .cls-27, .cls-28, .cls-29, .cls-30, .cls-31, .cls-32, .cls-33, .cls-34, .cls-35, .cls-36, .cls-37, .cls-38, .cls-39, .cls-40, .cls-41, .cls-42, .cls-43, .cls-44, .cls-45, .cls-46, .cls-47, .cls-48, .cls-49, .cls-50, .cls-51, .cls-52, .cls-53, .cls-54, .cls-55, .cls-56, .cls-57, .cls-58, .cls-59, .cls-60, .cls-61, .cls-62, .cls-63, .cls-64, .cls-65, .cls-66, .cls-67, .cls-68, .cls-69, .cls-70, .cls-71, .cls-72, .cls-73, .cls-74, .cls-75, .cls-76, .cls-77, .cls-78, .cls-79, .cls-80, .cls-81, .cls-82, .cls-83, .cls-84, .cls-85, .cls-86, .cls-87, .cls-88, .cls-89, .cls-90, .cls-91, .cls-92, .cls-93, .cls-94, .cls-95, .cls-96, .cls-97, .cls-98, .cls-99, .cls-100, .cls-101, .cls-102, .cls-103, .cls-104, .cls-105, .cls-106, .cls-107, .cls-108, .cls-109, .cls-110, .cls-111, .cls-112, .cls-113, .cls-114, .cls-115, .cls-116, .cls-117, .cls-118, .cls-119, .cls-120, .cls-121, .cls-122, .cls-123, .cls-124, .cls-125, .cls-126, .cls-127, .cls-128, .cls-129, .cls-130, .cls-131 {
        stroke-width: 0px;
      }

      .cls-2 {
        fill: #259db9;
      }

      .cls-3 {
        fill: #25b3ab;
      }

      .cls-4 {
        fill: #3fe7e7;
      }

      .cls-5 {
        fill: #3ee3e4;
      }

      .cls-6 {
        fill: #02635d;
      }

      .cls-7 {
        fill: #24b8a3;
      }

      .cls-8 {
        fill: #25b7a9;
      }

      .cls-9 {
        fill: #04a6a6;
      }

      .cls-10 {
        fill: #45f0f0;
      }

      .cls-11 {
        fill: #259bb7;
      }

      .cls-12 {
        fill: #000;
      }

      .cls-13 {
        fill: #02619e;
      }

      .cls-14 {
        fill: #259db8;
      }

      .cls-15 {
        fill: #000001;
      }

      .cls-16 {
        fill: #25afad;
      }

      .cls-17 {
        fill: #01397b;
      }

      .cls-18 {
        fill: #010607;
      }

      .cls-19 {
        fill: #2496bb;
      }

      .cls-20 {
        fill: #033881;
      }

      .cls-21 {
        fill: #25b0ac;
      }

      .cls-22 {
        fill: #3fe6e6;
      }

      .cls-23 {
        fill: #259bba;
      }

      .cls-24 {
        fill: #46f7f5;
      }

      .cls-25 {
        fill: #25baa6;
      }

      .cls-26 {
        fill: #34c5d3;
      }

      .cls-27 {
        fill: #259ab9;
      }

      .cls-28 {
        fill: #000102;
      }

      .cls-29 {
        fill: #06d2a8;
      }

      .cls-30 {
        fill: #32c0d1;
      }

      .cls-31 {
        fill: #25a0b7;
      }

      .cls-32 {
        fill: #3ce0e2;
      }

      .cls-33 {
        fill: #2497bb;
      }

      .cls-34 {
        fill: #25b9a5;
      }

      .cls-35 {
        fill: #25a0b6;
      }

      .cls-36 {
        fill: #25a9b1;
      }

      .cls-37 {
        fill: #035d68;
      }

      .cls-38 {
        fill: #024296;
      }

      .cls-39 {
        fill: #2597bc;
      }

      .cls-40 {
        fill: #00645c;
      }

      .cls-41 {
        fill: #25bba6;
      }

      .cls-42 {
        fill: #00416a;
      }

      .cls-43 {
        fill: #02469b;
      }

      .cls-44 {
        fill: #2598bb;
      }

      .cls-45 {
        fill: #010304;
      }

      .cls-46 {
        fill: #0d3543;
      }

      .cls-47 {
        fill: #014074;
      }

      .cls-48 {
        fill: #24b7a5;
      }

      .cls-49 {
        fill: #24b9a4;
      }

      .cls-50 {
        fill: #02569d;
      }

      .cls-51 {
        fill: #04765f;
      }

      .cls-52 {
        fill: #36ccd6;
      }

      .cls-53 {
        fill: #3de2e3;
      }

      .cls-54 {
        fill: #33c2d2;
      }

      .cls-55 {
        fill: #31bed0;
      }

      .cls-56 {
        fill: #3cdde0;
      }

      .cls-57 {
        fill: #2599ba;
      }

      .cls-58 {
        fill: #3de1e3;
      }

      .cls-59 {
        fill: #25aab0;
      }

      .cls-60 {
        fill: #0380a4;
      }

      .cls-61 {
        fill: #026364;
      }

      .cls-62 {
        fill: #00b1a3;
      }

      .cls-63 {
        fill: #00549a;
      }

      .cls-64 {
        fill: #25b5aa;
      }

      .cls-65 {
        fill: #02426d;
      }

      .cls-66 {
        fill: #33c3d2;
      }

      .cls-67 {
        fill: #46f7f6;
      }

      .cls-68 {
        fill: #000101;
      }

      .cls-69 {
        fill: #05705e;
      }

      .cls-70 {
        fill: #47faf9;
      }

      .cls-71 {
        fill: #05cba8;
      }

      .cls-72 {
        fill: #2eb0cc;
      }

      .cls-73 {
        fill: #005099;
      }

      .cls-74 {
        fill: #060606;
      }

      .cls-75 {
        fill: #2399ac;
      }

      .cls-76 {
        fill: #34c6d4;
      }

      .cls-77 {
        fill: #41eceb;
      }

      .cls-78 {
        fill: #02eaa0;
      }

      .cls-79 {
        fill: #3ad9dd;
      }

      .cls-80 {
        fill: #2daecc;
      }

      .cls-81 {
        fill: #38d3da;
      }

      .cls-82 {
        fill: #004671;
      }

      .cls-83 {
        fill: #2fb4cd;
      }

      .cls-84 {
        fill: #48fafa;
      }

      .cls-85 {
        fill: #45f5f3;
      }

      .cls-86 {
        fill: #31bdd0;
      }

      .cls-87 {
        fill: #35cad5;
      }

      .cls-88 {
        fill: #026264;
      }

      .cls-89 {
        fill: #2eb1cc;
      }

      .cls-90 {
        fill: #2fb3cd;
      }

      .cls-91 {
        fill: #40e9e9;
      }

      .cls-92 {
        fill: #32c3d2;
      }

      .cls-93 {
        fill: #023a7c;
      }

      .cls-94 {
        fill: #03387f;
      }

      .cls-95 {
        fill: #25a5b3;
      }

      .cls-96 {
        fill: #3cdfe2;
      }

      .cls-97 {
        fill: #000202;
      }

      .cls-98 {
        fill: #0d3542;
      }

      .cls-99 {
        fill: #003778;
      }

      .cls-100 {
        fill: #259aba;
      }

      .cls-101 {
        fill: #30b9ce;
      }

      .cls-102 {
        fill: #25baa5;
      }

      .cls-103 {
        fill: #25b8a7;
      }

      .cls-104 {
        fill: #01307d;
      }

      .cls-105 {
        fill: #04735d;
      }

      .cls-106 {
        fill: #013c77;
      }

      .cls-107 {
        fill: #48fbfb;
      }

      .cls-108 {
        fill: #32c1d0;
      }

      .cls-109 {
        fill: #25b8a8;
      }

      .cls-110 {
        fill: #43f1ef;
      }

      .cls-111 {
        fill: #3cdfe1;
      }

      .cls-112 {
        fill: #01476e;
      }

      .cls-113 {
        fill: #013b77;
      }

      .cls-114 {
        fill: #043982;
      }

      .cls-115 {
        fill: #3ee4e5;
      }

      .cls-116 {
        fill: #25bba7;
      }

      .cls-117 {
        fill: #3adade;
      }

      .cls-118 {
        fill: #24b7a3;
      }

      .cls-119 {
        fill: #2499b9;
      }

      .cls-120 {
        fill: #36cdd7;
      }

      .cls-121 {
        fill: #48faf9;
      }

      .cls-122 {
        fill: #259cb9;
      }

      .cls-123 {
        fill: #2fb5cd;
      }

      .cls-124 {
        fill: #48fcfb;
      }

      .cls-125 {
        fill: #02397e;
      }

      .cls-126 {
        fill: #03c4a5;
      }

      .cls-127 {
        fill: #39d5db;
      }

      .cls-128 {
        fill: #49fcfc;
      }

      .cls-129 {
        fill: #2499ba;
      }

      .cls-130 {
        fill: #030303;
      }

      .cls-131 {
        fill: #43f1f0;
      }
    </style>
  </defs>
  <g id="claro">
    <g>
      <path class="cls-12" d="M608.31,477.85c-4.58-.01-9.17-.09-13.75-.09-75.18,0-150.37-.42-225.55.31-17.28.17-28.76-5.04-36.36-20.64-5.37-11.04-12.65-21.15-18.94-31.76-4.38-7.4-10.53-10.94-19.18-10.85-11,.11-22,.09-33,0-8.21-.06-12.61,3.61-14.24,11.63-2.37,11.63-4.41,23.32-6.23,35.03-1.69,10.87-7.65,16.02-18.52,16.09-41.72.29-83.43.3-125.15-.01-7.16-.05-13.84-1.88-18.32-7.79-27-35.67-55.15-70.51-79.07-108.39v-13.69c6.73-41.8,17.29-82.79,26.19-124.14,14.88-69.11,29.94-138.17,45.01-207.24,1.34-6.15,1.98-12.84,8.59-16.31h148.57c6.19,3.13,8.57,9.16,11.39,14.83,13.14,26.4,28.38,51.7,41.48,79.98,4.04-6.38,3.65-12.26,4.72-17.67,3.03-15.3,5.33-17.35,20.59-17.74,2.73-.07,5.48-.19,8.21-.02,8.99.56,13.48-3.67,14.47-12.47,1.22-10.83,4.28-21.36,5.77-32.15.75-5.46,1.88-10.76,6.18-14.75h448.47c8.5,5.27,8.02,14.84,10.71,22.77,3.07,9.02,4.53,18.54,7.82,27.53,1.07,2.94,1.95,6.79,5.72,6.83,4.97.05,4.78-4.67,5.69-8,2.67-9.76,1.21-19.96,2.99-29.78,1.19-6.59.74-13.77,5.59-19.35h1199.58c6.75,10.16,4.82,22.11,5.97,33.13,6.98,66.99,14.25,133.95,20.32,201.03,1.55,17.18,3.67,19.06,21.13,19.2,30.48.25,30.64.24,28.41-29.26-2.12-28.15-6.43-56.07-8.87-84.2-.6-6.92-.25-13.62,2.03-20.2,12.09-34.87,22.74-70.21,34.36-105.24,1.86-5.61,3.55-11.42,9.45-14.46h597.04c6.51,3.5,7.42,10.08,8.79,16.26,19.46,88.21,38.43,176.53,57.74,264.78,4.96,22.69,11.39,45.05,13.67,68.35.87,8.9-.52,15.93-5.92,22.82-22.57,28.77-43.98,58.42-65.46,87.98-9.27,12.75-20.01,17.86-35.83,17.82-153.58-.41-307.15-.27-460.73-.19-8.18,0-18.21-3.15-24.09,2.07"/>
      <path class="cls-59" d="M208.79,248c.16-3.56.1-7.15.53-10.69.81-6.74,5.78-13.92.59-20.04-3.57-4.2-31.85.24-36.51,4.58-11.98-16.03-25.85-30.37-40.05-44.41-17.81-18.85-38.32-35.2-53.16-56.81,2.45-11.13,4.9-22.26,7.36-33.39,5.1-3.94,11.1-3.72,17.08-3.72,25.65,0,51.42-1.54,76.91.52,18.27,1.48,36.46,5.35,54.91,6.28-2.98,17.36-5.76,34.77-9.05,52.07-1.18,6.17-.5,8.91,6.84,8.74,22.77-.55,45.56-.46,68.34-.62,3.67-3.16,8.08-3.99,12.73-3.94,19.1.22,38.21-.8,57.27.54,5.57,1.5,11.24,2.45,17.05,2.31,20.66,16.61,40.28,34.27,55.97,55.84.41,15.15-5.41,29.38-6.66,44.28,0,6.82-4.91,8.77-10.14,8.47-31.94-1.86-64,1.28-95.88-2.46-3.23-.38-6.29-1.26-8.66-3.68-.87-8.28,2.12-16.06,3.09-24.1.87-7.19.12-11.94-9.61-11.51-32.24,1.43-25.73-5.74-31.66,26.12-2.48,13.3-5.33,26.52-8.02,39.78-12.27,6.83-25.27,3.61-38.1,2.8-12.27-10.72-26.65-19.72-31.16-36.95Z"/>
      <path class="cls-59" d="M802.48,104.27c-.99,12.68-1.97,25.37-2.98,38.05-.18,2.27-1.2,6.25-.55,6.53,10.36,4.52,21.35,1.18,32.07,2.07,6.71.56,5.47-5.09,5.88-8.55,1.74-14.79,3.02-29.64,4.47-44.46,12.27,29,39.83,43.62,60.97,64.29,14.58,14.26,32.27,25.41,43.65,42.89-.91,15.58-1.82,31.17-2.73,46.75-4.31,4.35-9.95,4.33-15.4,4.3-29.73-.18-59.46-.56-89.19-.5-4.62,0-9.17-.43-12.82-3.79-7.77-5.86-16.75-2.66-24.94-2.35-10.16.38-12.52-3.32-11.34-12.38,1.8-13.91,2.63-27.94,4.62-41.82,1.2-8.35,0-11.91-9.93-11.86-28.7.12-28.7-.36-30.82,30.19-9.36,3.32-12.16-5.63-17.77-9.35-26.51-24.36-51.64-50.17-78.7-73.94-3.21-2.82-5.4-6.09-7.28-9.73.47-5.5-.38-11.2,2.46-16.35,50.11,1.76,100.23,1.63,150.34,0Z"/>
      <path class="cls-46" d="M2784.54,350.93c-15.98,26.45-37.19,49.46-52.67,75.99-11.66,19.98-26.86,22.95-47.44,22.43-46.72-1.17-93.48-.37-140.23-.37h-14.96c13.65-22.69,23.08-46.83,39.98-63.44,11.17-10.98,12.3-23.74,19.45-34.78,1.09-1.42,2.47-2.45,4.15-3.09,15.5-3.23,31.21-.28,46.79-1.57,41.46-.2,82.91-.14,124.36-.04,7.15.02,14.78-1.15,20.58,4.86Z"/>
      <path class="cls-59" d="M2168.41,120.56c-.75-6.34-1.49-12.68-2.24-19.01,30.2,2.16,60.45.75,90.67,1.17,6.97.1,13.75-.45,19.87-4.18,7.91-.92,7.24,5.46,7.55,9.81.64,9.02,1.73,17.97,3.32,26.83,1.92,10.65,7.9,13,23.17,11.63,11.29-1.01,8.1-8.26,7.75-14.73-.32-5.82-2.44-11.52-1.17-17.44.48-1.29,1.3-2.33,2.43-3.13,14.41,4.17,24.46,15.2,36.1,23.51,26.27,18.78,52.48,37.69,78.17,57.28,3.42,2.61,6.46,6.9,11.92,4.82,2.29,13.6,4.59,27.2,6.88,40.8-3.68,4.33-8.86,4.43-13.84,4.49-28.76.32-57.53.41-86.29-.06-6.56-.11-14.44.5-15.61-9.27-3-5.19.7-14.98-6.96-15.99-10.57-1.39-21.73-2.42-32.31,1.04-1.04.34-.92,4.17-1.34,6.38-35.93-33.64-76.63-61.36-115.04-91.92-4.66-3.71-9.46-7.17-13.04-12.01Z"/>
      <path class="cls-35" d="M2754.11,199.85c10.7,48.24,22.24,96.31,30.47,145.06-7.27,4.57-12.37-1.02-16.96-4.57-39.9-30.82-81.53-59.34-121.26-90.39-1.08-1.45-2.22-3.02-2.27-4.8-.71-26.99-6.02-25.8-32.96-24.84-1.35.05-2.69.17-4.05.21-14.81-5.34-24.91-17.55-37.74-25.81-4.55-2.93-8.84-6.3-13.17-9.61-4.18-4.57-13.56-7.11-6.42-16.13,3.51-2.53,7.6-3.26,11.73-3.24,46.63.16,93.27-1.67,139.89.98,3.57.77,5.96,3.26,8.4,5.69,1.66,9.85,7.56,11.89,17.1,11.41,7.96-.4,16.8-3.76,24.32,2.36-3.31,4.46-9.05,1.79-13.43,4.3,4.92,4.56,10.25,7.61,16.33,9.39Z"/>
      <path class="cls-64" d="M2704.09,169.77c-46.9-.01-93.8,0-140.7-.06-5.5,0-10.94-.12-15.87,2.83-4.78,3.46-8.86.58-12.28-2.07-18.56-14.38-37.37-28.41-56.49-42.05-2.98-2.13-5.06-5.12-6.18-8.68-5.13-28.1-10.29-56.2-15.37-84.32-.97-5.38-1.02-9.78,6.87-9.78,59.98.06,119.96-1.81,179.94.33-.17,1.59-.99,2.72-2.43,3.4-12.58,3.39-25.43,1.51-38.16,1.63-28.77.27-57.54.24-87.32-.04,20.84,13.62,40.13,27.87,59.71,41.71,5.45,3.85,12.09,6.81,13.94,14.25-4.68,6.28-5.24,13.06-3.27,20.56,1.72,6.55,2.64,13.32,3.68,20.05,2.88,18.71,5.17,19.99,23.74,19.59,9-.19,10.95-4.37,10.34-11.84,1.65-10.6,9.69-10.26,17.57-10.2,2.22.05,4.39.47,6.48,1.18,19.12,11.05,35.23,26.37,53.97,38.01,1.85,1.15,3.56,2.89,1.84,5.49Z"/>
      <path class="cls-16" d="M1598.91,120.58c-1.05-28.16-1.97-56.33-3.25-84.48-.33-7.23,1.26-10.57,9.61-10.54,81.94.27,163.88.16,245.82.24,1.67,0,3.33,1.02,5,1.56-4.7,4.81-10.88,4.14-16.72,4.23-17.8.29-35.6.03-53.4-.1-22.16.17-44.33.48-66.49-.22-3.11-.09-6.24.2-9.34-.11-20.1-.98-40.3,1.07-56.92-.97,20.31,13.96,41.51,31.83,62.71,49.73,2.56,2.78,5.76,5.35,3.47,9.82-7.3,15.65-3.83,31.98-2.77,48.06,1.6,24.29,2.47,48.59,2.64,72.93-3.24,6.22-7.34,2.61-11.28,1-37.04-29.55-75.16-57.87-109.09-91.15Z"/>
      <path class="cls-109" d="M615.96,79.2c-5.25,42.11-10.51,84.23-15.76,126.34-.34,2.69-.62,5.39-.92,8.09-4.67,3.16-7.95-.11-10.7-2.87-28.24-28.33-57.47-55.64-86.47-83.19-2.04-1.94-3-4.51-3.95-7.07,3.98-29.26,8.05-58.51,11.84-87.8.68-5.21,3.2-6.97,8.1-6.98,33.46-.1,66.92-.31,100.38-.37,1.09,0,2.19,1.29,3.28,1.97-3.9,4.2-9.15,3.65-14.06,3.63-17.71-.07-35.44.67-51.97-.36,15.78,14.76,34.1,28.86,47.21,48.07-6.24,7.18-15.12,2.54-22.38,5.22,7.77-2.1,17.91,5.61,23.44-5.91,4.28-2.22,8.26-1.83,11.96,1.22Z"/>
      <path class="cls-8" d="M1903.5,120.18c-2.63-7.89-2.7-16-2.06-24.17,7.51-6.71,16.79-2.3,24.71-4.27-4.39-1.09-9.34-.55-14.19-.48-8.46.12-12.66-3.74-13.06-12-1.08-14.89-2.26-29.78-3.18-44.69-.24-3.89-1.09-8.74,5.35-8.76,34.88-.08,69.81-3.23,104.63,1.52-4.85,4.87-11.12,3.41-16.9,3.47-22.79.24-45.59-.04-71.6.21,34.34,25.02,64.17,50.82,96.88,72.92,3.06,29.82,6.16,59.64,9.13,89.46.67,6.68.9,13.41,1.34,20.11-2.7,1.26-5.13.2-7.57-.83-36.84-28.03-73.26-56.6-109.29-85.67-2.16-1.74-3.64-4.03-4.19-6.83Z"/>
      <path class="cls-86" d="M2649.67,249.11c38.19,28.42,76.3,56.96,114.67,85.15,6.09,4.48,11.87,10.19,20.24,10.65.76,2.01,3.95,4.04-.03,6.02-48.66-.34-97.32-.68-145.98-1.02-22.22-10.08-39.1-27.43-57.93-42.17-1.43-1.68-2.35-3.6-2.91-5.72-1.06-11.6-5.35-22.51-7.26-33.92-.95-5.7-2.44-11.43,1.29-16.77,5.45-4.11,11.91-3.36,18.05-3.21,7.17.17,13.17-1.68,17.76-7.31,5.46-1.07,5.81,3.35,6.67,6.61,1.5,5.72,2.29,11.6,3.12,17.46,1.64,11.47,18.37,18.61,28.24,12.2,3.99-2.59,2.64-6.32,2.24-9.85-.7-6.17-3.58-12.55,1.82-18.12Z"/>
      <path class="cls-39" d="M324.25,251.87c33.46.91,66.92,1.85,100.38,2.71,5.35.14,11.19,1.27,14.3-5.04-3.16,33.96-10.02,67.37-15.09,101.04-4.32,4.35-9.98,4.12-15.39,4.17-28.3.22-56.59.18-84.89.04-5.52-.03-10.99-.43-15.53-4.17-1.7-14.74,3.27-28.65,5.79-42.8,3.32-18.67,4.51-37.75,10.43-55.93Z"/>
      <path class="cls-116" d="M1295.5,120.19c.2-29.98.37-59.96.68-89.94.01-.98,1.48-1.95,2.27-2.93,15.01-2.9,30.17-.49,45.21-1.28,13.19,1.96,20.26,13.26,30.19,20.12,13.11,9.05,24.62,20.26,37.07,30.25,3.43,2.75,7.56,5.55,6.03,11.15-7.12,0-8.53,4.01-8.41,10.35.29,14.74-.08,29.49-.19,44.24-4.72,4.84-10.9,4-16.74,4.06-15.97.17-31.94-.08-47.9.14-4.75.06-10.3-1.71-13.56,3.87-13.91,5.96-15.8,5.07-18.21-9.42-.62-3.72-3.5-4.99-5.71-7.09-4.22-4-9.32-7.3-10.74-13.51Z"/>
      <path class="cls-46" d="M308.03,350.61c38.6,0,77.21-.02,115.81-.03,13.45,25.76,26.78,51.58,40.42,77.24,4.04,7.59,2.76,10.51-6.25,10.22-13.16-.42-26.35-.11-39.57,2.73,12.72,0,25.45-.03,38.17.02,3.65.01,7.32.04,10.93.45,2.36.27,4.44,1.82,4.49,4.35.06,3.05-2.64,3.31-4.89,3.31-32.91.04-65.82.01-98.73,0-3.52,0-6.01-1.68-7.7-4.75-17.29-31.32-36.87-61.37-52.68-93.52Z"/>
      <path class="cls-46" d="M2470.7,350.44c-7.09,13.23-14.11,26.5-21.28,39.69-6.86,12.62-19.96,16.68-33.18,10.02-12.49-6.29-24.88-2.27-37.37-1.06,18.99,8.03,38.97,5.56,60.13,6.25-4.35,15.73-14.78,27.43-21.09,41.09-1.35,2.91-4.63,2.51-7.33,2.51-34.23.03-68.46.02-104.31.02,11.69-30.42,27.39-57.11,40.85-84.84,3.02-6.22,5.92-12.27,5.43-19.38,32.82,2.62,65.7.89,98.55,1.44,6.79.11,13.85-.74,19.59,4.26Z"/>
      <path class="cls-46" d="M148.37,350.18c9.81,14.64,19.62,29.28,29.87,44.57-16.56,7.21-35.28-5.47-50.35,9.95,13.59.25,25.92,2.12,38.21-1.35,11.02-3.11,19.07-.42,24.99,10.1,6.58,11.69,14.43,22.68,22.71,35.5-36.59,0-71.22-.02-105.85.03-4.03,0-7.23-1.59-9.35-4.76-21.15-31.63-45.88-60.75-65.85-93.21,4.05-4.65,9.64-4.86,15.12-4.9,28.78-.21,57.57-.24,86.35,0,5.04.04,10.11.35,14.14,4.06Z"/>
      <path class="cls-46" d="M1879.12,350.88c.63,10.25-3.85,19.51-5.96,29.22-1.79,8.27-.39,59.68.12,71.5.49,11.51-262.86-3.04-269.32-2.61-8.42.56-8.6-4.78-7.89-10.7,3.5-29.22,7.04-58.43,10.57-87.64,5.47-5.62,12.66-4.54,19.37-4.55,35.64-.06,71.28-.39,106.92.19,43.26-.49,86.53-.17,129.79-.15,5,0,10.06.05,14.58,2.75.61.66,1.21,1.33,1.81,2Z"/>
      <path class="cls-46" d="M583.08,344.74c-.56,15.82,8.7,28.41,14.49,42.03,4.51,10.6,9.31,20.81,7.49,32.66-1.23,7.97,4.57,13.58,6.79,20.38,2.23,6.86.72,9.23-6.33,9.21-28.83-.1-57.65-.1-86.48,0-4.19.01-6.88-1.59-8.65-5.27-14.95-31.15-32.31-61.13-45.53-93.12,13.88-7.97,28.87-3.22,43.36-3.79,1.43.18,2.83.6,4.15,1.17,4.19,2.32,4.06,5.6,1.76,9.13-2.68,4.11-1.34,7.77.93,11.41,2.1,3.37,4.95,5.7,9.05,4.01,5.12-2.11,2.41-5.81,1.45-9.19-1.46-5.13-7.45-10.52.58-15.35,18.85-3.37,38.08.14,56.92-3.26Z"/>
      <path class="cls-36" d="M1254.15,205.13c2.31,9.09-1.34,11.57-10.47,11.51-47.61-.32-95.22-.01-142.84.08-6.43-1.71-10.08-7.59-15.81-10.36-17.41-13.81-33.43-29.19-49.86-44.08-4.25-3.85-11.06-8.31-3.74-15.51,23.88-4.32,47.72-6.4,71.4,1.07.31.77.61,1.54.87,2.33,19.7,4.06,39.61,1.07,59.41,1.72,19.29.64,19.97-2.98,18.67,18.93-.34,5.84-.68,11.74,1.35,17.64,1.95-6.89,1.02-14.07,1.48-21.11.41-6.22-.46-13.02,6.74-16.53,17.73-.08,35.48.3,53.18-.44,9.46-.39,13.69,2.47,12.19,12.1-.95,6.1,1.98,12.62-2,18.41-2.89-2.15-3.71-5.44-3.38-8.53,1.41-13.16-5.2-16.58-17.13-15.66-9.97.77-20.04.18-32.21.09,14.8,12.1,26.66,24.81,40.65,35.15,4.85,3.58,9.25,7.4,11.46,13.18Z"/>
      <path class="cls-121" d="M2588.92,87.75c-26.65-19.44-53.29-38.88-82.46-60.16h137.59c2.45-2.77,5.37-1.37,7.36.02,26.45,18.4,53.75,35.67,77.79,57.31,2.06,4.22,3.17,8.64,3,13.36,2.67,6.46-2.08,8.8-6.52,8.97-34.02,1.31-68.08,3.11-102.05-.95-1.35-.16-2.4-1.25-3.52-1.97-4.74-9.09-11.64-14.39-22.61-13.28-3.11.31-6.29-.74-8.58-3.29Z"/>
      <path class="cls-25" d="M802.48,104.27c-2.68,4.38-6.63,5.36-11.64,5.34-43.09-.17-86.18-.09-129.26-.11-4.08,0-8.62.67-9.43-5.23-.65-24.45,5.89-48.1,8.07-72.23.42-4.68,2.34-6.28,6.76-6.28,34.64-.03,69.29-.15,103.93-.14.56,0,1.11,1.24,1.67,1.91-4.53,4.34-10.32,2.51-16.17,3.19,3.17,6.68,12.03,8.22,13.71,15.7.85,11.19-1.95,22.03-3.24,33.01-8.04,7.01-18.51,1.7-28.54,5.52,22.15,3.92,43.41,3.31,64.43,5.41,1.03,4.66,1.06,9.31-.27,13.92Z"/>
      <path class="cls-76" d="M1708.34,208.4c2.69,1.74,5.38,3.47,8.08,5.21,6.26,5.24,6.27,12.74,6.83,19.83.75,9.45.16,18.95.33,28.43.26,14.35,13.36,21.73,25.98,14.82,3.32-1.82,3.94-4.72,4.32-7.88.59-4.9-.05-9.97,1.98-14.69,2.34-4.38,6.14-3.79,9.29-1.81,15,9.41,29.32,19.69,40.24,33.9,1.13,1.47,1.08,3.39.86,5.23-3.97,9.1-12.34,8.28-19.93,8.33-36.48.21-72.97.19-109.42.08-4.88.86-9.05-.83-12.49-4.1-15.87-15.08-34.26-27.09-50.9-41.28-8.17-6.97-11.89-14.28-11.4-24.41-.12-4.61-.25-9.22-.37-13.84,4.28-5.87,10.64-6.41,17.09-6.49,23.6-.3,47.19.36,70.77,1.15,6.47.22,12.64-.6,18.75-2.49Z"/>
      <path class="cls-117" d="M2168.41,120.56c16.18,7.64,28.78,20.26,42.86,30.78,23.96,17.9,47.29,36.61,71.16,54.63,6.6,4.99,11.92,10.42,14.06,18.51,1.13,8.12,2.25,16.25,3.38,24.37-4.14,4.65-9.76,4.31-15.19,4.32-28.22.07-56.43.04-84.65.03-5.52,0-11-.07-15.25-4.4-5.46-42.75-10.91-85.5-16.37-128.25Z"/>
      <path class="cls-95" d="M1870.44,205.18c.95,11.83,1.91,23.65,2.86,35.48-2.33,2.34-5.18,3.95-8.45,3.95-35.43-.04-70.88,2.02-106.27-1.07-5.39-2.33-7.15-7.18-6.98-12.23,1.17-35.41-4.07-70.45-5.88-105.68-.16-3.16.24-6.34,1.11-9.39,4.59-9.81,10.33-4.67,15.05-.55,10.66,9.29,22.27,17.44,32.74,26.92,24.78,21.44,52.71,39.14,75.83,62.58Z"/>
      <path class="cls-72" d="M2033.1,281.76c26.65.21,53.29.42,79.94.63,12.65,5.27,22.49,14.67,33.32,22.6,6.04,4.42,6.99,11.05,6.97,17.93,1.16,9.04,2.32,18.09,3.48,27.13-3.66,3.09-7.99,4.47-12.69,4.47-30.68-.03-61.36,1.17-92-.62-15.76-6.6-26.56-19.94-40.03-29.72-13.49-9.8-27.33-19.32-39.25-31.2-1.8-2.8-2.57-5.78-1.59-9.06.8-1.68,1.91-3.54,3.62-3.77,19.49-2.69,39.01-5.3,58.24,1.62Z"/>
      <path class="cls-46" d="M2046.99,349.94c36.6.03,73.21.07,109.81.1-.46,1.28-1.14,2.52-1.36,3.84-4.83,29.66,5.79,97.29-21.38,95.3-34.19-2.51-223.22,5.5-223.53,0-.8-14.04,9.61-99.75,9.61-99.75,1.39.29,46.8,13.74,40.37,19.11,13.2-.88,12.8-14.67,20.9-20.02,1.38-.69,2.8-1.15,4.3-1.45,20.49-.03,41.15-4.14,61.28,2.86Z"/>
      <path class="cls-46" d="M1292.86,373.04c.94-7.78-.87-15.35-2.22-22.95,18.5-7.18,37.33-4.29,56.14-1.84,5.01,5.39,11.23,6.91,18.57,6.5,9.1-.51,18.22-.3,27.32.05,7.03.27,12.86-1.73,17.89-6.58,27.3-4.72,54.81-1.28,82.21-2.05,7.95-.22,16.68-2.1,23.42,4.67-.79,35.17,6.16,104.35,6.16,104.35.48-.52-138.2,3.61-138.2,0h-27.64s-48.83-2.54-57.69-2.4"/>
      <path class="cls-83" d="M1516.2,350.85c-35.79-.16-71.59-.32-107.38-.48-.47-.39-.95-.79-1.43-1.18-1.38-2.1-2.08-4.5-3-6.8-14.9-16.59-33.11-29.38-49.95-43.75-4.67-3.99-14.32-7.41-6.86-16.9,20.49-3.06,40.97-7.28,61.42.13,26.49.17,52.99.35,79.48.52,12.69,6.62,25.96,12.61,30.64,27.97.33,13.48,4.11,27.2-2.93,40.12v.35Z"/>
      <path class="cls-24" d="M1256.89,85.05c-.17,3.14-2.51,3.29-4.78,3.28-45.93-.25-91.85-.53-137.78-.81-7.95-3.63-13.97-10-21.16-14.74-14.19-10.05-26.49-22.3-39.76-33.42-3.21-2.69-6.59-6.12-5.27-10.39,1.66-5.36,7.02-2.8,10.66-2.81,40.19-.19,80.38-.09,120.57-.15,5.56,0,11.53-.28,15.75,3.38,20.94,18.16,44.31,33.67,61.76,55.66Z"/>
      <path class="cls-67" d="M1416.95,87.55c-16.74-17.33-36.31-31.36-54.9-46.53-4.89-3.99-10.49-7.22-13.25-13.29,3.07-2.99,6.93-1.61,10.41-1.62,39.73-.1,79.47-.04,119.2-.1,5.07,0,10.48-.5,14.55,2.7,22.85,17.97,47.12,34.32,66.48,56.37-.23,3.12-2.59,3.25-4.84,3.24-45.88-.24-91.77-.51-137.65-.78Z"/>
      <path class="cls-46" d="M2313.6,350.11c-13.58,29.19-27.5,58.22-40.53,87.65-4,9.04-9.53,12.24-18.97,11.36-6.79-.64-90.41-6.74-85.18-2.32.25.21,13.73-63.96,17-71.46,3.62-8.28,6.64-16.81,9.92-25.23,17.34-7.17,35.22-3.35,52.93-2.68,6.47,8.82,13.09,4.57,19.74.09,15.15-.78,30.44-4.4,45.1,2.59Z"/>
      <path class="cls-87" d="M1409.01,281.88c-21.24.45-42.54-.44-63.64,2.88-8.28,1.31-11.78-5.89-16.51-10-11.82-10.26-25.54-18.46-35.19-31.15-.04-11.8-.08-23.6-.12-35.39,5.55-5.46,14.28-2.91,20.03-7.89,15.27-3.35,30.76-1.04,46.14-1.66,7.24-.3,14.59.35,21.17-3.61,14.6-1.86,20.67,8.79,27.38,18.52.25,22.77.5,45.54.75,68.31Z"/>
      <path class="cls-4" d="M945.98,205.11c-32.94-28.94-65.89-57.86-98.81-86.83-6.26-5.51-4.37-13.43-5.81-20.36.35-3.34.69-6.67,1.04-10.01,4.18-4.47,9.71-4.35,15.17-4.36,27.21-.04,54.43-.04,81.64,0,5.48,0,10.97.07,15.22,4.37-.69,39.22-4.8,78.19-8.46,117.19Z"/>
      <path class="cls-46" d="M1251.59,350.08c.08,11.64,22.82,92.91,17.01,98.55-6.21,6.03-22.34,2.22-34.14,2.24-56.63.1-113.27-.33-169.9.37-11.03.14-15.66-3.57-17.13-13.52-1.06-7.15-20.38-79.16-21.57-86.3.78-1.61,1.99-2.76,3.63-3.47,24.52-3.7,49.2-.82,73.8-1.65,21.91.21,43.84-1.04,65.72.77,5.59,1.35,11.16.76,16.73-.28,17.23-1.16,34.48-.54,51.71-.49,4.96.01,10.05.2,14.13,3.78Z"/>
      <path class="cls-85" d="M354.31,71.14c2.04-14.89,4.01-29.8,8.4-44.24,12.29-1.8,24.65-.41,36.98-.82,4.36-.15,8.16,1.52,11.21,4.42,17.2,16.36,33.65,33.5,51.02,49.7,1.31,1.22,1.83,3.14,2.49,4.84-2.83,19.04-5.66,38.08-8.48,57.11-4.14,4.58-9.73,4.19-15.12,4.25-11.3.11-22.61.15-33.91,0-18.1-.23-22.25-5.46-18.86-23.49.42-2.21,1.18-4.34,1.77-6.49.31-1.3.69-2.6.97-3.93,5.72-27.75,5.71-27.62-22.4-29.31-7.34-.44-17.04.8-14.05-12.04Z"/>
      <path class="cls-123" d="M1171.8,350.21c-22.83-.09-45.67-.17-68.5-.26-11.51-4.5-18.52-14.58-27.49-22.19-13.89-11.79-27.55-23.86-41.35-35.77-3.89-3.36-7.07-7.14-7.16-12.66.32-2.52,1.7-4.21,4.01-5.22,18.52-3.37,37.15-1.61,55.73-1.19,4.18.09,8.05,1.64,9.79,6.1,3.11,5.2,8.22,2.72,12.37,2.8,22.79.41,45.59.43,68.38.59,6.41,4.44,17.16,6.09,11.73,18.13-10.55,1.84-12.81,9.14-13.47,18.54-.73,10.41,3.34,21.56-4.05,31.13Z"/>
      <path class="cls-102" d="M2278.21,98.3c.35,6.42-2.79,8.59-9.1,8.55-30.92-.2-61.84-.19-92.75.03-4.74.03-7.68-1.88-10.19-5.34-4.22-24.55-6.88-49.27-8.1-74.14,14.75-3.04,29.67-.52,44.46-1.37,17.16,3.54,29.72,15.18,42.46,25.61,14.15,11.6,31.4,19.68,42.07,35.37-2.88,3.8-5.82,7.58-8.86,11.28Z"/>
      <path class="cls-30" d="M596.58,227.17c-2.75,37.59-8.98,74.76-13.8,112.1-4.87,1.3-7.75-2.08-10.53-4.89-27.47-27.85-56.26-54.33-84.59-81.28-5.93-5.64-9.88-11.9-6.26-20.44.83-5.67,1.65-11.35,2.48-17.02,6.97,5.67,14.93,7.59,23.92,7.48,23.57-.29,47.16-.2,70.73-.03,6.25.05,12.84-.77,18.05,4.1Z"/>
      <path class="cls-3" d="M1097.71,71.87c5.79,4.95,12.8,8.63,16.62,15.66-7.26,0-8.25,4.23-8.47,10.53-.56,16.61-1.97,33.19-3.04,49.78-19.4,0-38.79.04-58.19-.02-5.44-.02-10.85-.17-15.73,2.79-15.16-3.72-23.65-11.99-23.91-23.28,10.46-4.42,21.55-1.06,32.18-3.15-12.73,2.96-26.94-5.86-38.6,5.55-2.75,1.27-5.33,1.1-7.69-.88,1-16.52,2-33.05,3-49.57,4.36-8.16,12.32-6.53,19.33-6.68,28.16-.62,56.34.66,84.5-.72Z"/>
      <path class="cls-27" d="M2337.1,233.05c2.49,4.75,6.69,5.23,11.56,5.2,34.72-.23,69.44-.26,104.16-.36,6.81,35.55,12.82,71.22,17.38,107.13-4.92,3.43-8.93.3-12.42-2.32-39.84-29.93-79.84-59.67-118.77-90.79-.64-6.29-1.28-12.57-1.92-18.86Z"/>
      <path class="cls-96" d="M596.58,227.17c-32.83.02-65.65-.17-98.48.19-8.76.1-14.25-2.08-14.23-11.73,4.56-31.74,7.7-63.68,14.28-95.12,30.66,26.58,59.48,55.07,88.21,83.67,3.74,3.73,6.58,9.07,12.91,9.45-.9,4.51-1.8,9.03-2.7,13.54Z"/>
      <path class="cls-52" d="M1096.83,279.02c-16.42-5.27-33.31-1.37-49.94-2.46-5.89-.38-11.82-.09-17.72-.1-4.29.89-8.41.52-12.34-1.54-6.23-4.56-10.59-11.32-17.32-15.21-15.27-8.84-18.94-21.87-14.62-38.05.18-3.63.36-7.26.54-10.9,5.67-5.21,12.78-4.01,19.49-4.14,27.31-.55,54.65,1.06,81.93-1.39,6.95,1.06,10.5,6.23,13.98,11.48-1.33,20.77-2.67,41.54-4,62.31Z"/>
      <path class="cls-131" d="M1794.05,144.94c-10.97-8.45-21.96-16.87-32.89-25.37-3.49-2.71-5.8-7.08-10.89-7.47-.75-.51-1.8-1.06-1.9-1.8-1.78-14.32-9.82-20.94-24.32-20.01-1.75.11-3.27-1.3-4.47-2.69-1.81-1.83-3.63-3.67-5.44-5.5,5.3-7.56,13.49-6.67,21.09-6.75,26.88-.27,53.75-.05,80.63-.13,7.27-.02,14.62.28,21.36-3.21,12.63-4.66,17.04,5.41,23,12.73,4.26,18.98,4.44,38.28,4.72,57.58-1.83,2.26-4.4,3.43-7.12,3.51-21.27.63-42.55,2.29-63.77-.9Z"/>
      <path class="cls-129" d="M2313.6,350.11c-16.41.12-32.81.23-49.22.35-.46-.42-.93-.83-1.4-1.24-1.95-2.55-1.06-6.29-3.75-8.74-4.06,1.78-2.1,6.46-4.34,9.04-.44.44-.88.88-1.33,1.32-19.24-.24-38.48-.49-57.73-.73-3.63-30.84-7.27-61.68-10.9-92.53,5.6-5.23,12.24-3.95,18.82-3.01,27.19,15.98,50.3,37.49,75.9,55.66,10.29,7.3,18.82,17.23,31.43,21.14,3.07,5.95,2.58,12.38,2.52,18.75Z"/>
      <path class="cls-48" d="M1097.71,71.87c-1.97,7.3-8.05,4.63-12.53,4.68-25.12.23-50.25.1-75.37.12-5.44,0-11.03-.78-15.92,2.6.91-14.5,2.01-28.99,2.64-43.5.31-7.24,2.91-10.22,10.77-10.2,80.59.25,161.17.24,241.76.02,7.97-.02,10.5,2.95,10.06,10.47-.96,16.32-1.5,32.67-2.21,49-22.28-15.04-40.74-34.64-61.76-51.2-4.07-3.21-7.67-6.23-13.13-6.23-43.77.04-87.53.02-134.94.02,17.78,17.06,33.74,31.14,50.64,44.22Z"/>
      <path class="cls-44" d="M1602.11,230.06c.71,14.53,12.77,20.94,21.9,28.89,15.75,13.71,32.48,26.31,48.79,39.37,19.17,8.16,32.51,24.2,48.95,36.06,5.32,3.84,12.06,7.22,11.59,15.58-42.23.22-84.47.44-126.7.67,0,0-.11-.1-.11-.1-3.05-9.98.99-20.48-2.3-30.44-.18-.79-.13-1.55.17-2.3,8.51-7.42,19.35-1.83,29.76-5.41-10.02-4.73-21.46,1.67-29.75-5.98-.76-25.45-1.53-50.9-2.29-76.35Z"/>
      <path class="cls-100" d="M481.4,232.65c-.49,16.9,14.13,23.62,23.87,32.64,23.92,22.13,47.08,44.99,70.31,67.8,2.25,2.21,4.79,4.13,7.2,6.18.1,1.82.2,3.65.3,5.47-2.83,4.81-7.03,5.92-12.5,5.81-15.93-.34-31.86-.09-47.8-.07-.4-.49-.8-.99-1.21-1.48-1.53-8.03,2.1-15.95.31-26.28-6.62,9.31-.88,21.52-10.26,27.49-15.59.13-31.17.26-46.76.4,1.48-29.43,8.11-58.18,11.72-87.34,1.27-10.25,3.19-20.41,4.82-30.62Z"/>
      <path class="cls-14" d="M1293.66,243.61c19.34,11.1,34.1,27.88,51.7,41.15,13.38,16.32,31.9,26.82,47.16,41.05,5.65,5.27,11.98,9.77,16.12,16.48-7.44,5.83-16.24,3.55-24.51,3.77-6.39.16-12.39.42-16.74,5.92-6.47,2.65-12.84,3.38-18.94-.94-19.26-.31-38.53-.62-57.79-.94,1.01-35.49,2.01-70.99,3.02-106.48Z"/>
      <path class="cls-46" d="M2578.23,350.85c-16.91,31.68-36.87,61.53-55.69,92.07-2.2,3.57-4.76,6.22-9.75,6.15-18.68-.26-37.37-.1-58.58-.1,11.15-19.35,21.2-36.9,31.36-54.39,5.94-10.25,11.76-20.58,18.16-30.54,4.41-6.86,5.97-14.13,5.69-22.02,16.13,6.28,33.02,3.77,49.66,4.37,6.62.24,13.81-1.41,19.15,4.47Z"/>
      <path class="cls-19" d="M739.96,336.69c-.04,4.47-.08,8.94-.12,13.41-10.09,7.68-21.81,3.52-32.82,4.32-6.73.49-13.57.51-20.25-.81-1.41-.31-2.77-.89-4-1.65-3.74-2.73-2.78-7.99-5.64-11.69-4.39,3.81-4.09,10.56-9.89,12.43-2.11.87-4.31,1.25-6.57,1.48-12.96-.66-26.47,3.81-38.62-4.13,2.1-28.54,5.59-56.91,10.2-85.15,8.68-4.95,17.94-3.34,27.13-2.39,3.17.71,5.97,2.24,8.21,4.53,23.42,23.94,50.27,44.35,72.37,69.64Z"/>
      <path class="cls-81" d="M2608.19,241.13c.74,7.71-1.98,11.51-10.54,10.89-8.45-.61-16.98-.04-25.48,0-21.4,2.53-42.87.62-64.31.91-5.84-.29-12.06.19-14.59-6.96-2.8-18.12-5.59-36.24-8.39-54.36,4.71-5.59,10.95-5.47,17.43-4.78,19.04,2.03,37.95,1.67,56.54-3.54,15.58,11.62,32.45,21.6,45.98,35.83,5.79,6.63,6.97,13.95,3.36,22.01Z"/>
      <path class="cls-77" d="M2445.95,197.1c-1.73,1.44.95,8.57-4.04,4.92-39.83-29.11-79.26-58.76-118.8-88.27-.32-.24-.38-.81-.57-1.23,7.35-6.84,16.49-3.88,24.9-4.17,6.45-.22,11.8-.68,13.45-8.29.71-3.25,2.97-6.33,6.3-6.58,20.74-1.5,41.63-5.49,62.02,2.36,5.58,33.75,11.15,67.5,16.73,101.25Z"/>
      <path class="cls-127" d="M134.9,175.1c13.06,9.76,21.79,23.7,33.75,34.54,3.52,3.19,4.79,7.51,4.74,12.21-1.31,6.4-2.63,12.8-3.94,19.2-2.48,5.6-7.61,4.12-11.91,4.09-30.17-.17-60.33-.13-90.5-.15-4.5,0-9.33.91-12.15-4.08,3.29-22.12,7.95-43.95,13.96-65.49,22.04,4.63,44.06,6.16,66.05-.31Z"/>
      <path class="cls-103" d="M90.64,71.13c.52-2.65.9-5.34,1.58-7.95,3.19-12.08.58-28.4,9.97-35.35,9.34-6.91,24.68-1.83,37.38-2.02,20.95-.31,41.92.23,62.87-.23,8.49-.19,10.08,2.76,8.21,10.41-3.54,14.46-6.41,29.08-9.56,43.64-2.97,2.34-6.35,3.68-10.13,3.71-29.78.23-59.57.38-89.35-.1-7.21-.12-14.49-1.66-10.96-12.11Z"/>
      <path class="cls-90" d="M2339.01,251.91c19.22,7.03,32.66,22.35,48.66,33.95,24.2,17.54,47.6,36.17,71.51,54.11,3.16,2.37,7.32,3.41,11.02,5.06.17,1.81.33,3.61.5,5.42-34.76-.02-69.52-.09-104.28.01-5.59.02-10.95.32-13.86-5.71-4.52-30.94-9.03-61.89-13.55-92.83Z"/>
      <path class="cls-96" d="M1903.5,120.18c38.58,30.3,77.16,60.6,115.74,90.9,2.71,12.92-7.72,11.46-14.43,11.82-20.01,1.08-40.08.34-60.12.42-6.83.03-13.68.27-20.5-.22-5.41-.38-11.19-.41-13.73-6.75-2.46-32.05-7.08-63.94-6.96-96.17Z"/>
      <path class="cls-26" d="M1910.46,216.35c3.55,2.54,7.59,2.71,11.78,2.7,27.94-.07,55.88-.02,83.82-.06,5.93,0,12.54.89,13.18-7.92,1.77.81,3.54,1.63,5.31,2.44,3.84,19.88,5.15,40,5.69,60.19-5.1,5.14-11.71,3.96-17.92,4.06-14.02.24-28.04-.12-42.03.24-9.01,3.28-16.54.62-23.37-5.58-11.5-10.44-27.45-16.08-34.32-31.52-2.34-8.04-2.11-16.31-2.14-24.55Z"/>
      <path class="cls-100" d="M1804.78,287.57c-15.35-11.95-28.85-26.29-46.23-35.63-1.15-1.81-.82-3.29,1-4.44,4.57-2.72,9.66-2.42,14.68-2.43,27.44-.04,54.88-.04,82.32,0,5.92,0,12.02-.48,16.73,4.29,2.47,30.82,4.97,61.64,7.39,92.46.24,3.09.77,6.34-1.56,9.04.15-.69.19-1.38.12-2.08-18.11-6.93-29.26-22.89-44.19-33.96-10.88-8.07-23.02-15.07-30.26-27.27Z"/>
      <path class="cls-120" d="M737.44,202.5c6.19,2.49,8.53,10.46,16,11.13-1.65,14.61-3.3,29.22-4.95,43.83-3.28,2.74-7.14,3.88-11.34,3.84-27.18-.25-54.38,1.05-81.54-.68-10.06-4.49-20.72-8.5-20.09-22.48,1.15-14.62,1.98-29.28,5.6-43.59,5.6,7.71,13.23,9.89,22.58,9.63,24.57-.68,49.2.86,73.73-1.68Z"/>
      <path class="cls-58" d="M1708.34,208.4c-1.97,7.53-8.99,8.02-14.07,7.38-24.14-3.04-48.37-.98-72.51-2.29-6.9-.37-13.5.74-20.02,2.73-.94-31.88-1.89-63.77-2.83-95.65,17.64,9.56,30.83,24.66,46.33,36.88,21.23,16.73,42.09,33.94,63.1,50.95Z"/>
      <path class="cls-44" d="M148.37,350.18c-38.54.28-77.07.56-115.61.83-.84-21.28,7.67-40.93,10.92-61.5,1.68-10.68,4.24-21.22,6.4-31.83,4.65-4.98,10.64-3.77,16.41-3.56,1.38.16,2.73.51,4.03,1.01,3.44,1.45,6.74,3.68,8.38,6.74,2.53,4.74,7.04,3.87,10.8,5.26,1.07,2.8.88,5.6.09,8.42-3.85,10.72-5.14,22.02-7.78,33.01-2.26,9.39.75,13.53,10.73,13.4,15.91-.2,31.83-.47,47.74.2,7.2.31,14.35,1.41,11.48,11.78-1.19,5.42-2.39,10.83-3.58,16.25Z"/>
      <path class="cls-33" d="M2578.23,350.85c-18.21-.14-36.44-.77-54.63-.18-7.47.24-11.71-2.1-14.19-8.66-4.54-28.15-9.07-56.3-13.61-84.45,4.8-4.9,10.87-3.68,16.72-3.47,1.4.16,2.77.52,4.09,1,18.85,12.2,36.25,26.49,55.1,38.75,1.48,1.61,2.35,3.5,2.69,5.65,1.62,11.53,3.71,22.97,5.98,34.39,1.14,5.76,1.99,11.57-2.14,16.69v.27Z"/>
      <path class="cls-46" d="M236.46,281.62c13.86.18,27.72.36,41.59.53,15.16,19.04,5.7,39.38,1.92,58.76-2.31,11.84-1.45,21.26,6.09,30.32,2.31,2.78,5.51,6.21,4.04,9.56-2.02,4.61-7.26,1.72-11.03,2.49-12.92,2.64-20.15-3.67-25.51-14.72-4.49-9.26-10.48-17.8-16.76-28.24,9.46-.6,17.23-1.08,26.71-1.68-6.46-6.88-13.31-4.95-18.99-4.37-9.23.94-14.44-3.07-18.64-10.39-8.12-14.15-16.51-28.16-24.78-42.22,11.78-5.61,23.57-5.49,35.36-.04Z"/>
      <path class="cls-56" d="M1086.85,205.24c-2.9,6.35-8.65,5.57-14.09,5.57-29.11-.01-58.22-.02-87.33-.03-1.34-27.52,4.06-54.6,5.45-81.94,2.75-.24,5.51-.48,8.26-.72,1.87-1.03,3.52-.82,4.91.86,6.72,8.99,16.06,14.99,24.85,21.62,14.98,17.59,33.87,31.01,50.4,46.94,2.59,2.49,5.03,5.13,7.54,7.7Z"/>
      <path class="cls-111" d="M737.44,202.5c-4.22,5.12-9.98,5.62-16.07,5.6-22.33-.09-44.66-.44-66.98.14-10.42.27-14.12-4.06-13.27-13.68,2.85-24.65,5.71-49.3,8.56-73.95,31.5,24.91,59.1,53.96,87.75,81.89Z"/>
      <path class="cls-91" d="M2620.3,101.24c3.06,2.22,6.48,2.85,10.25,2.84,30.4-.09,60.8-.05,91.21-.04,4.57,0,9.41.57,10.44-5.76,3.5,14.95,6.91,29.92,10.54,44.84,1.43,5.86-.2,8.59-6.55,7.93-2.26-.24-4.57-.03-6.85-.03q-22.34.04-19.56,21.37c-2.31.04-4.34-.56-5.68-2.61-18.27-13.54-37.98-25.18-54.5-41.01,12.27-7.88,25.96-1.94,38.07-4.2-15.55-.57-31.89.17-48.23-.42-5.54-.17-10.71-1.49-15.29-4.69-4.51-5.39-9.83-10.63-3.83-18.21Z"/>
      <path class="cls-44" d="M825.84,251.86c39.14,0,78.27,0,117.41,0-2.62,32.82-5.25,65.64-7.87,98.47-12.77,7.01-25.6,5.88-38.46.26l.08-.2c-5.1-13.76-1.31-27.72-.27-41.45.93-12.23,1.01-24.42,1.57-36.62.4-8.6-3.25-11.14-11.24-10.98-14.11.28-28.24.08-42.36.07-5.93,0-11.9.21-17.11-3.38-2.48-1.51-2.29-3.78-1.75-6.15Z"/>
      <path class="cls-122" d="M1912.6,240.9c14.16,11.06,28.6,21.78,42.31,33.37,4.33,3.66,6.58,2.65,9.71-.36,2.29,2.57,3.35,5.61,3.52,9-.4,18.13,3.35,35.99,3.71,54.08.09,4.43,1.65,9.06-2.15,12.83-16.33.09-32.67.18-49,.26-2.7-36.4-5.4-72.8-8.1-109.19Z"/>
      <path class="cls-84" d="M2014.08,103.93c-.79,1.89-.99,5.11-4.25,2.62-32.16-24.6-64.27-49.26-96.35-73.96-.94-.73-1.36-2.14-3.24-5.26,32.78,0,64.12,0,95.46,0,5.57,25.23,5.95,51.03,8.38,76.6Z"/>
      <path class="cls-115" d="M1383.79,194.56c-.69,8.43-6.91,8.04-12.91,8.03-19.38-.04-38.77-.07-58.15-.11-6.72,1.24-13.42,2.37-19.19-2.8.65-26.5,1.3-53,1.96-79.49,6.76,5.33,13.57,10.58,20.22,16.03,1.31,1.07,2.9,2.91,2.85,4.34-.3,10.3-.43,10.29,10.39,9.84,1.61-1.5,3.5-1.68,5.54-1.17,15.02,10.86,28.27,23.85,42.68,35.47,3.1,2.5,6.2,5.39,6.61,9.86Z"/>
      <path class="cls-55" d="M2311.07,331.36c-.79,3.75-2.14,6.22-6.3,2.96-32.74-25.68-65.48-51.35-98.23-77.02,1.28-1.34,2.78-2.71,4.58-2.86,27.43-2.2,54.89-1.34,82.35-.5,5.34.16,7.78,4.15,9.03,8.89,2.86,22.84,5.71,45.68,8.57,68.53Z"/>
      <path class="cls-46" d="M682.08,350.86c19.25-.26,38.51-.51,57.76-.77,3.11,8.94,27.58,80.48,31.03,89.29,2.63,6.72.66,9.18-6.38,9.16-32.99-.11-65.97-.14-98.96.04-5.38.03-8.6-2-10.46-6.85-3.74-9.75-29.23-81.95-33.03-91.67,13.72.21,27.44.42,41.17.63,4.47,5.04,11.97,5.79,15.72,12.14,2.7-4.23-.44-8.92,3.15-11.97Z"/>
      <path class="cls-70" d="M844.36,68.81c1.21-13.75,2.41-27.5,3.62-41.25,13.43-3.16,27.05-.96,40.58-1.32,3.3-.09,6.05,1.87,8.45,4.04,15.19,13.72,30.95,26.81,45.47,41.25,2.85,2.83,8.1,6.39.8,10.43-29.57,3.23-59.22,1.07-88.82,1.18-9.17.04-13.41-4.91-10.11-14.34Z"/>
      <path class="cls-30" d="M739.96,336.69c-1.71-.51-4-.48-5.04-1.6-22.72-24.44-50.49-43.72-71.83-69.56,28.38-6.43,56.75-6.86,85.09.23-2.74,23.64-5.48,47.28-8.22,70.92Z"/>
      <path class="cls-54" d="M54.9,240.9c27.79,0,55.59,0,83.38.02,10.39,0,20.78.08,31.17.12-2.51,13.59-5.01,27.17-7.52,40.76-3.51,3.55-8.02,4.25-12.68,4.16-16.93-.33-33.9,1.19-50.8-.91-2.37-.69-4.43-1.84-5.69-4.05-.34-1.27-.6-2.57-.52-3.93q1.39-24.06-23.86-24.22c-1.8-.01-3.59,0-5.41-.04-3.9-.18-7.64-.76-10.25-4.1.72-2.6,1.44-5.21,2.16-7.81Z"/>
      <path class="cls-122" d="M888.25,350.15l-1.23.23-1.22-.25c-12.86-22.63-34.23-37.4-51.87-55.61-2.98-3.07-6.72-2.14-10.33-1.72.73-9,1.46-18,2.18-27,7.97-6.41,17.44-4,26.37-4.24,10.48-.28,20.98-.38,31.45.11,6.16.29,12.45,1.6,12.46,9.53.05,24.48-3.21,48.8-4.33,73.23-.1,2.29-1.87,4.07-3.48,5.71Z"/>
      <path class="cls-5" d="M2558.84,183.29c-4.96,7.29-12.55,7.11-20.3,7.97-17.93,1.98-35.82-2.84-53.67.35-5.67-14.9-4.81-30.99-8.52-46.29-2.02-8.34-2.57-17.03-3.78-25.57,21.14,15.45,42.86,30.12,62.77,47.18,3.5,3,7.56,4.93,12.18,5.61,2.22,5.2,7.67,7.03,11.32,10.75Z"/>
      <path class="cls-25" d="M1559.45,85.09c-19.84-11.95-36.39-28.08-54.12-42.66-11.51-9.46-22.61-15.82-38.83-15.24-39.19,1.41-78.46.51-117.7.55-16.78-.14-33.56-.28-50.34-.42,19.89-3.53,40.01-1.8,59.97-1.95,62.17-.47,124.35.37,186.53.17,10.24-.03,14.89,1.9,14.21,13.4-.91,15.32.1,30.76.28,46.15Z"/>
      <path class="cls-49" d="M2207.98,28.09c-16.64-.23-33.27-.46-49.91-.69,19.37-3.73,39-1.88,58.46-2.03,63.1-.49,126.21.37,189.32.13,9.7-.04,13.74,2.44,14.8,12.38,1.79,16.67,5.08,33.19,7.74,49.77-1.51.57-3.01.54-4.49-.08-22.27-15.01-43.67-31.25-65.41-47.01-8.94-6.48-17.99-9.66-29.07-9.53-33.31.41-66.62.07-99.93.21-7.38.03-14.55-.64-21.51-3.15Z"/>
      <path class="cls-123" d="M823.59,292.8c2.28-2.63,2.05-8.72,8.76-3.55,19.03,14.66,33.58,33.9,51.9,49.28,2.22,1.86,1.11,7.64,1.54,11.6,0,0,.43.69.43.69-22.18,6.5-44.37,6.2-66.58.18-6.2-12.62,3.03-24.55,1.72-37.12-.72-6.88,1.39-14.05,2.23-21.08Z"/>
      <path class="cls-57" d="M976.6,350.61c0-23.21,1.4-46.32,5.06-69.27,9.8-5.56,20.3-3.56,30.61-2.53,5.03.5,8.68,4.02,8.86,8.96.75,21.07,1.19,42.18-6.02,62.51l.12.18c-12.86,5.49-25.73,6.79-38.63.14Z"/>
      <path class="cls-32" d="M1794.05,144.94c17.45-5.58,35.38-1.3,53.05-2.52,5.92-.41,11.89-.09,17.83-.1,4.43,20.73,3.03,41.96,5.5,62.86-18.65-8.96-31.58-25.41-48.52-36.69-10.12-6.74-19.69-14.41-27.87-23.55Z"/>
      <path class="cls-118" d="M946.32,79.29c-15.41-13.85-31.28-27.23-46.06-41.72-8.13-7.97-16.75-10.99-27.79-10.06-8.11.68-16.33.09-24.5.06,4.93-4.89,11.12-2.31,16.64-2.33,28.32-.11,56.64.56,84.96.28,8.53-.08,11.14,2.07,9.8,10.77-2.48,16.06-.43,32.67-5.61,48.46-6.04,2.99-6.75-1.22-7.45-5.46Z"/>
      <path class="cls-59" d="M1383.79,194.56c-16.59-14.43-33.17-28.87-49.76-43.3.29-.35.53-.92.89-1.01,24.46-5.84,48.89-6.85,73.23.67.03,20.88.06,41.77.1,62.65-8.15-6.34-16.31-12.67-24.46-19.01Z"/>
      <path class="cls-7" d="M464.4,85.02c-18.05-12.51-32.6-28.85-47.71-44.43-9.22-9.51-18.68-14.79-32.2-13.18-7.14.85-14.52-.28-21.79-.52,12.44-3.97,25.2-1.39,37.79-1.56,20.95-.28,41.92.43,62.87.26,7.49-.06,10.97,1.48,9.32,9.98-3.19,16.4-5.57,32.96-8.29,49.45Z"/>
      <path class="cls-23" d="M1515.59,306.75c-6.53-10.88-19.95-14.16-27.11-24.35,21.96-.14,43.94.06,65.88-.61,7.94-.24,10.51,2.72,10.48,10.01-.08,17.73.1,35.46.18,53.19-7.46,3.84-11.97-1.73-16.43-5.71-7.74-6.9-15.01-14.31-22.65-21.33-1.67-2.61-2-5.61-2.31-8.6-.71-6.93-4.49-4.4-8.04-2.62Z"/>
      <path class="cls-21" d="M305.08,136.73c1.67-9.81,3.12-19.67,5.06-29.43,3.85-19.4,3.96-19.34,23.61-19.54,5.91-.06,11.82-.47,17.74-.72.42.49.83.98,1.25,1.46-3.43,7.77-11.19,3.33-17.73,6.32,13.07,12.19,24.53,25.26,37.97,36.42,3.63,3.01,8.87,5.33,6.92,11.75-1.2,1.06-2.53,1.8-4.05,2.3-19.94,2.34-39.91.99-59.85.78-5.25-.06-13.05.36-10.92-9.35Z"/>
      <path class="cls-46" d="M819.65,351c22.19-.06,44.39-.12,66.58-.19,3.25,11.21,33.87,87.98,33.99,101.28-19.62,0-39.15-.19-58.67.12-5.84.09-8.13-2.8-9.4-7.62-2.41-9.17-30.08-84.43-32.5-93.59Z"/>
      <path class="cls-34" d="M2729.19,84.92c-26.72-15.32-50.1-35.42-75.66-52.42-3.04-2.02-5.65-4.55-9.49-4.91,0-.53-.02-1.07-.03-1.6,20.98-.09,41.96-.17,62.94-.26,5.55-.03,10.83-.44,12.18,7.3,3.04,17.35,6.67,34.6,10.06,51.9Z"/>
      <path class="cls-22" d="M134.9,175.1c-1.77,4.37-5.78,5.2-9.74,6.41-16.32,5.02-32.83-2.31-49.26.85-3.06.59-6.71-2.57-7.05-6.95,1.93-18.64,7.15-36.6,11.33-54.78,19.79,16.61,36.52,36.28,54.72,54.47Z"/>
      <path class="cls-128" d="M602.45,79.48c-17.63-16.63-35.26-33.27-55.25-52.14,26.78,0,50.68,0,74.57,0,.71,17.58-3.12,34.66-5.8,51.87-4.49.09-8.99.19-13.48.28,0,0-.03,0-.03,0Z"/>
      <path class="cls-41" d="M1860.22,84.75c-6.56-4.39-13.11-8.77-19.67-13.16-6.29.98-9.71-4.04-14.06-6.89-12.45-8.16-22.65-19.25-35.31-27.2-3.41-2.14-6.61-4.89-6.29-9.66,23.73-.16,47.47-.32,71.2-.48,3.61,18.97,4.98,38.1,4.13,57.39Z"/>
      <path class="cls-89" d="M1251.59,350.08c-22.85.05-45.71.1-68.56.15-7.4-12.83-4.81-26.49-2.32-39.7,1.45-7.73,9.22-7.6,15.73-7.67,3.11.02,6.22.18,9.17,1.3,16.03,13.67,32.35,27.09,45.78,43.53.38.77.45,1.57.2,2.39Z"/>
      <path class="cls-46" d="M901.15,364.87c-1.27-4.8-2.82-9.53-4.23-14.29,12.82-.09,25.64-.17,38.46-.26,7.64,29.83,15.24,59.68,22.97,89.49,1.06,4.09,3.2,8.42-3.54,8.99-5.45.46-26.34,9.01-26.13.39"/>
      <path class="cls-53" d="M445.59,205.26c-17.97-16.83-35.95-33.64-53.82-50.57-.77-.73-.48-2.55-.69-3.87,2.13-2.65,5.14-4.1,8.29-3.89,18.12,1.2,36.75-4.91,54.34,3.73-.96,18.46-4.28,36.57-8.12,54.6Z"/>
      <path class="cls-58" d="M1254.15,205.13c-21.23-14.61-39.08-33.02-61.84-51.83,20.87,0,37.63.13,54.38-.07,6.26-.07,7.72,3.14,7.63,8.54-.1,6.37.26,12.74.41,19.11-.2,8.08-.4,16.16-.6,24.24Z"/>
      <path class="cls-47" d="M888.25,350.15c-1.04-25.35,2.6-50.48,4.3-75.68.55-8.21-1.46-9.07-8.11-8.97-19.55.28-39.11.22-58.67.3.6-2.6,1.21-5.19,1.81-7.79,21.41-.21,42.84-.04,64.24-.81,9.61-.35,11.35,3.74,11.09,12.14-.83,27.11-2.99,54.1-5.92,81.05-2.91-.08-5.83-.15-8.74-.23Z"/>
      <path class="cls-57" d="M1251.39,347.69c-16.7-11.25-30.71-25.37-43.67-40.6.77-1.1,1.68-2.52,2.93-2.52,12.49-.08,19.52-6.07,21.15-18.49.21-1.63,2.34-2.58,3.54-3.88,17.54-.44,17.22-.45,16.62,16.3-.58,16.38-.41,32.79-.58,49.19Z"/>
      <path class="cls-17" d="M93.34,279.24c.98,1.05,1.97,2.11,2.95,3.16,3.46,2.1,8.16,3.51,5.18,9.2-2.45,2.63-5.31,4.87-6.68,8.47-3.69,9.7-1.45,13.39,9.11,13.86,7.75.34,15.51.1,23.28-.09,9.81.73,19.47-.86,29.18-1.65-.73,7.4-1.47,14.8-4.42,21.75.36-7.56-4.07-8.67-10.5-8.53-18.72.39-37.45.1-56.16.52-7.49.17-11.17-1.03-8.52-9.8,4.27-14.12,3.13-29.65,11.14-42.85,3.13.81,4.97,2.77,5.44,5.97Z"/>
      <path class="cls-46" d="M1565.24,350.08c2.02,10.12-2.83,19.69-2.42,29.7.19,4.73-5.36,78.64-9.54,78.21-6.56-.68-17.65,3.34-18.78-2.66-2.16-11.44-12.7-91.61-7.52-104.8,12.67-7.08,25.44-5.79,38.26-.46Z"/>
      <path class="cls-101" d="M156.37,312.18c-8.44,10.48-19.75,3.85-29.76,4.93-9.11-3.19-14.49-10.72-20.33-17.6-3.59-4.23-5.39-8.79,1.5-12.02,17.3-.81,34.78-5.15,51.59,2.76,1.39,7.63-3.24,14.45-2.99,21.93Z"/>
      <path class="cls-98" d="M976.6,350.61c12.88-.05,25.75-.09,38.63-.14-7.47,10.56-12.9,20.83,3.5,28.57.87.41,1.6,2.36,1.45,3.46-.38,2.73,16.5,65.88,14.13,65.9-8.23.07-16.45.11-24.68,0-4.8-.06-7.34-2.57-8.2-7.4-1.66-9.34-22.94-81.1-24.83-90.4Z"/>
      <path class="cls-113" d="M1015.11,350.29c.97-18.83,1.42-37.7,3.11-56.46.91-10.09-2.97-12.57-12.15-12-8.09.5-16.26-.27-24.4-.48.02-2.31.04-4.63.06-6.94,11.86-8.53,24.1-5.43,36.39-1.19,3.62,1.32,8.23-.72,11.06,3.25,0,1.84,0,3.68,0,5.51,7.3,23.08,2.62,45.67-2.9,68.21,0,0-.4,1.23-.41,1.23-3.59-.38-7.17-.76-10.76-1.13Z"/>
      <path class="cls-126" d="M2426.01,87.39c.79.13,1.58.22,2.38.26.28,2.73.56,5.47.83,8.2-18.62-.02-37.25-.1-55.87-.02-4.29.02-11.14-.91-9.17,5.97,3.7,12.98-4.89,10.33-11.67,10.44-9.99.17-19.98.2-29.97.29-.92-.09-1.85-.18-2.78-.26-2.85-2.83-2.72-5.85-.57-8.99,3.02-2.35,6.63-3.1,10.29-3.04,9.79.16,19.29.29,23.45-11.37.88-2.48,4.06-3.99,6.78-4.09,22.16-.85,44.46-4.64,66.3,2.62Z"/>
      <path class="cls-105" d="M90.64,71.13c-.53,8.99,5.56,8.53,11.8,8.52,32.88-.09,65.76-.03,98.65-.02-1.11,6.82,2.52,8.17,8.5,8.03,8.87-.2,17.76.29,26.64.54.24,0,.63.57.65.88.02.41-.28.83-.44,1.24-49.57-3.88-99.28-1.38-148.9-3.08,1.23-5.33-1.11-11.34,3.1-16.11Z"/>
      <path class="cls-82" d="M2302.51,262.83c-2.81-4.71-6.79-6.1-12.38-6.02-27.86.42-55.72.37-83.58.48-7.2.09-14.41.19-21.61.28-.05-2.92-.1-5.85-.16-8.77,38.36.02,76.73.03,115.09.05,2.34,4.39,3.61,8.97,2.64,13.97Z"/>
      <path class="cls-65" d="M748.17,265.77c-28.36-.08-56.73-.15-85.09-.23-10.28-.21-20.56-.42-30.84-.63.29-2.59.57-5.18.86-7.77,6.32-5.48,12.7-1.65,19.06-.12,32.11.15,64.21.3,96.32.45-.1,2.77-.21,5.53-.31,8.3Z"/>
      <path class="cls-112" d="M1873.29,249.37c-38.27,0-76.54,0-114.81,0-2.7-2.31-2.73-4.94-.95-7.79,38.59-.3,77.18-.61,115.77-.91,0,2.9-.01,5.81-.01,8.71Z"/>
      <path class="cls-29" d="M946.32,79.29c2.91,1.25,3.38,5.78,7.45,5.46.31.66.7,1.31.91,2.01.1.33-.15.76-.24,1.15-37.34,0-74.69,0-112.03,0,.96-6.34-1.55-13.03,1.96-19.1-.11,7.54,2.31,11.21,11.19,11.01,30.24-.69,60.51-.43,90.77-.53Z"/>
      <path class="cls-9" d="M453.71,150.66c-20.88.05-41.76.1-62.64.16-4.68,1.39-9.32,4.56-14.17.4,1.67-2.71,3.07-5.5,2.79-8.81.03-.83.06-1.65.07-2.48-4.1-9.81-3.05-18.76,4.53-26.61,3.37-1.14,6.51-.99,9.17,1.69q-4.13,27.42,24.49,27.4c12.66-.02,25.31-.17,37.97-.27-.64,2.87.56,6.21-2.2,8.53Z"/>
      <path class="cls-37" d="M1191.37,150.82c-5.62,12.18-1.27,25.09-2.84,37.55-.56,4.42,1.81,11.51-6.2,11.09-7.29-.38-4.13-6.84-4.31-10.76-.37-8.16-1.55-16.71.32-24.45,2.79-11.58-2.91-11.58-11.3-11.39-16.89.38-33.79.25-50.68.02-4.28-.06-9.27,1.94-12.65-2.72,29.22.22,58.45.44,87.67.66Z"/>
      <path class="cls-31" d="M1018.11,273.22c-12.13.4-24.26.79-36.39,1.19-1.41-17.73.69-35.24,3.17-52.74-2.81,17,4.6,28.63,19.04,36.99,5.95,3.45,10.34,8.84,14.17,14.56Z"/>
      <path class="cls-80" d="M1565.24,350.08c-12.75.15-25.51.3-38.26.46,0,0,.14-.29.14-.29-6.21-10.9-6.77-21.77.2-32.59,9.41,1.78,13.32,10.39,19.68,15.91,5.49,4.76,10.24,10.37,18.02,11.44.07,1.69.14,3.38.22,5.07Z"/>
      <path class="cls-71" d="M393.46,115c-2.86-.04-5.73-.09-8.59-.13-3.37-3.2-3.56-7.45-2.8-11.39,2.04-10.54-3.64-12.37-12.32-12.17-5.78.13-11.92,1.04-17.05-3.01-.36-.47-.76-.89-1.22-1.27,1.37-5.23-.56-11.04,2.83-15.91.53,5.59,2.43,9.59,9.26,8.57,2.22-.33,4.54-.05,6.81-.04,32.92.08,34.16,1.98,23.09,35.34Z"/>
      <path class="cls-61" d="M1408.16,150.93c-24.71.11-49.41.22-74.12.34-1.69-.28-3.38-.57-5.07-.85-3.98-5.1-5.36-8.2,3.75-8.09,25.21.31,50.42-.07,75.64-.18-.07,2.93-.13,5.86-.2,8.79Z"/>
      <path class="cls-88" d="M379.7,142.4c6.08,5.13,5.58,8.2-2.79,8.81-24.78-.23-49.56-.47-74.33-.7,1.09-4.55-1.49-9.76,2.51-13.78,1.11,7.54,7.05,5.69,11.71,5.71,20.97.1,41.94,0,62.91-.03Z"/>
      <path class="cls-11" d="M2153.32,322.92c-2.66-17.61-20.01-21.38-30.46-31.62-3.1-3.04-7.48-4.88-9.83-8.91,46.41.13,33.05-8.59,40.35,36.48.21,1.31-.03,2.69-.06,4.04Z"/>
      <path class="cls-108" d="M236.46,281.62c-11.79.01-23.58.03-35.36.04,2.93-11.14,2.69-22.99,7.7-33.66,6.91,13.09,22.14,19.41,27.67,33.62Z"/>
      <path class="cls-2" d="M1191.22,298.11c-4.55-5.23-9.09-10.47-13.64-15.7,14.66-.07,29.33-.14,43.99-.21,5.74,13.7,2.62,19.19-11.55,20.13-4,.26-8.01.16-11.99-.48-2.69-.49-5.14-1.42-6.81-3.74Z"/>
      <path class="cls-63" d="M1965,282.34c-.13-2.81-.25-5.61-.38-8.42,21.87-.07,43.75-.15,65.62-.22,2.85,2.02,1.87,5.39,2.86,8.06-16.38.05-32.75,0-49.12.2-4.64.06-10.55-1.87-11.85,5.54-4.25.84-5.58-2.32-7.14-5.16Z"/>
      <path class="cls-38" d="M1527.32,317.66c-.07,10.86-.14,21.73-.2,32.59-3.64.08-7.29.16-10.93.25-.2-14.58-.39-29.16-.59-43.74.53-3.92-.11-8.8,6.29-8.15,5.26.53,4.64,4.64,4.84,8.2.2,3.62.4,7.24.59,10.86Z"/>
      <path class="cls-125" d="M2578.24,350.57c.68-15.94-4.98-30.92-7.19-46.42-.34-2.38-.89-4.28,1.06-6.02,5.54-2,6.16,3.19,8.56,5.79.8.97,1.59,1.95,2.39,2.92,7.92,13.51,10.43,28.08,8.65,43.5-1.01.14-2.03.28-3.04.43-3.48-.06-6.95-.13-10.43-.19Z"/>
      <path class="cls-73" d="M159.36,290.25c-18.22.08-36.45.16-54.67.24-1.25.7-2.27.45-3.05-.75-1.78-2.45-3.56-4.89-5.34-7.34,21.88-.2,43.76-.4,65.64-.6.14,3.12,0,6.15-2.57,8.45Z"/>
      <path class="cls-59" d="M802.75,90.34c-21.33,0-42.66.04-64-.05-3.91-.02-8.92.88-9.16-5.19-.25-6.14,4.66-5.62,8.68-5.66,9.53-.1,19.06-.03,28.59-.02-1.07,5.39-1.24,9.12,6.65,9.14,9.72.03,19.75-2.53,29.24,1.78Z"/>
      <path class="cls-106" d="M1196.92,298.74c3.13-.12,6.33-.7,9.38-.27,13.05,1.83,18.43-3.17,15.27-16.26,4.59,0,9.18,0,13.77,0-.37,1.3-.43,2.8-1.14,3.88-4.07,6.13,2.54,16.15-5.02,19.56-6.12,2.76-14.23,1.13-21.46,1.45-2.71-.32-5.42-.64-8.13-.96-3.35-1.59-5.79-3.5-2.66-7.39Z"/>
      <path class="cls-99" d="M1604.4,306.41c10.45.09,20.91.17,31.36.28,3.33.04,6.53.41,6.86,4.73.38,4.96-2.72,6.08-6.87,6.1-10.45.06-20.91.18-31.36.28,0-3.8,0-7.59,0-11.39Z"/>
      <path class="cls-69" d="M1898.91,79.26c3.46,11.68,13.17,7.7,21.17,8.72,6.14.78,16.97-4.04,17.15,4.66.14,6.58-10.72,2.32-16.58,3.07-6.31.81-12.8.26-19.22.3-1.71-5.46-3.69-10.87-2.53-16.76Z"/>
      <path class="cls-10" d="M770.11,46.41c-7.14-4.76-14.64-9.1-21.07-18.89,8.82,0,16.18,0,23.53,0-.41,6.35.23,12.84-2.46,18.89Z"/>
      <path class="cls-79" d="M2754.11,199.85c-2.02,8.08-5.16,1.22-7.35.3-6.23-2.61-12.2-5.8-16.78-13.98,8.06,0,14.64,0,21.22,0,.97,4.56,1.94,9.12,2.91,13.69Z"/>
      <path class="cls-75" d="M652.17,257.02c-6.35.04-12.71.08-19.06.12-.36-6.48-.28-12.9,2.42-19,2.27,9.15,10.77,12.87,16.65,18.87Z"/>
      <path class="cls-60" d="M1293.54,199.68c6.33,1.38,13.41-2.34,19.18,2.8-3.83,10.39-12.89,3.48-19.19,5.73,0-2.85,0-5.69,0-8.53Z"/>
      <path class="cls-1" d="M2514.43,256.98c-6.21.19-12.42.39-18.62.58-1.71-3.68-3.48-7.34-2.54-11.59,3.84,3.18,8.78,2.41,13.16,3.64,2.69,2.43,8.73,1.26,8,7.37Z"/>
      <path class="cls-42" d="M52.74,248.71c3.5.26,7.01.52,10.51.77,2.64,1.96,7.33,2.49,5.39,7.64-6.19.18-12.38.37-18.56.55.89-2.99,1.78-5.98,2.66-8.97Z"/>
      <path class="cls-46" d="M1604.22,320.1c5,9.83,1.06,20.33,2.3,30.44-5.57-9.79-1.57-20.29-2.3-30.44Z"/>
      <path class="cls-39" d="M2591.71,350.33c-5.09-14.07-6.22-28.91-8.64-43.5,18.5,14.36,37,28.72,55.5,43.08-15.62.14-31.24.28-46.86.42Z"/>
      <path class="cls-68" d="M2318.52,104.59c.41,2.56.82,5.12,1.23,7.68,1.28,10.22,2.4,20.46,3.91,30.65.81,5.41-.09,7.75-6.54,8.28-29.81,2.43-29.78,2.67-34.52-26.38-1.44-8.84-2.94-17.67-4.41-26.5-.87-6.23.44-10.82,8.09-10.6,7.01-5.89,15.28-4.82,23-2.96,10.67,2.57,12.23,10.42,9.22,19.85Z"/>
      <path class="cls-15" d="M2608.19,241.13c-1.12-7.33-2.24-14.67-3.36-22.01,11.21-5.69,23.07-1.8,34.62-2.17,4.04-.13,4.08,3.9,4.7,7.11,1.64,8.39,3.65,16.7,5.52,25.05,1.68,10.6,3.36,21.19,5.21,32.86-10.98,0-21.38-.26-31.76.1-6.12.21-7.46-2.97-8.33-8.08-1.88-11.01-4.37-21.92-6.6-32.87Z"/>
      <path class="cls-97" d="M2620.3,101.24c1.18,5.52.71,11.51,4.74,16.2,5.91,5.97-1.43,13.37,2.15,19.59,3.67,11.04.39,14.77-11.84,14.3-24.18-.94-24.15-.22-28.32-23.92-1.8-10.24-3.61-20.49-5.93-30.62-1.63-7.09,2.01-8.77,7.81-9.04,4.93.2,9.96,1.11,14.77.46,10.46-1.43,16.25,2.15,16.62,13.03Z"/>
      <path class="cls-62" d="M2638.19,121.02c17.38-.17,34.75-.36,52.13-.48,4.08-.03,9.56-.46,9.24,5.17-.29,5.19-5.74,2.74-8.79,2.82-13.72.34-27.45.2-41.17.24-1.93-.07-3.86-.15-5.79-.22-2.36-2.14-6.57-2.92-5.62-7.52Z"/>
      <path class="cls-6" d="M2638.19,121.02c1.87,2.51,3.75,5.02,5.62,7.52-6.07,1.81-16.38-4.6-16.61,8.5-4.53-6.12-1.7-13.03-2.15-19.59,4.38,1.19,8.76,2.38,13.14,3.57Z"/>
      <path class="cls-12" d="M1757.53,241.57c.32,2.6.63,5.19.95,7.79-.34.87-.32,1.73.08,2.58-.14,1.36-.26,2.72-.43,4.07-1.07,8.41,4.14,21.08-2.3,24.33-8.42,4.25-20.44,1.41-30.91,1.66-6.75.16-5.14-4.83-5.34-8.62-1.08-19.92-2.11-39.84-3.16-59.76-1.66-35.28-3.74-70.54-4.62-105.84-.17-6.82-6.99-18.27,7.79-20.16,2.26.27,4.51.73,6.78.79q22.75.63,23.9,23.71c.71,42.07,6.18,83.93,5.38,126.07-.02,1.12,1.23,2.26,1.88,3.39Z"/>
      <path class="cls-124" d="M1784.89,27.84c18.55,14.58,37.11,29.16,55.66,43.74-.92,8.55-7.38,7.8-13.33,7.8-30.53.02-61.06.14-91.59-.08-7.37-.05-14.47.73-21.48,2.81-22.1-17.56-44.21-35.12-68.18-54.16h62.05c6.94,6.91,3.73,15.68,4.45,23.72.94,4.92-3.33,10.83,2.83,14.67,1.25-3.34.55-6.72.66-10.07-.01-8.24.14-16.46-.39-24.67.05-1.5.67-2.72,1.84-3.66,22.5-.03,44.99-.07,67.49-.1Z"/>
      <path class="cls-78" d="M1719.61,57.42c0,4.6-.02,9.2-.02,13.79-6.09,2.71-9.55,1.42-9.65-5.88-.05-3.51,1.13-7.29-1.39-10.51-.18-8.96-.36-17.92-.54-26.88,3.13,0,6.26,0,9.39,0-.22.83-.19,1.64.1,2.44,2.21,8.9-1.37,18.24,2.11,27.04Z"/>
      <path class="cls-51" d="M602.48,79.49c1.26,2.9,5.78,2.91,6.15,8.38-11.17,0-22.28.05-33.38-.04-2.25-.02-4.75-.4-5.08-3.32-.4-3.58,2.03-4.74,5.01-4.8,9.09-.16,18.17-.17,27.26-.24,0,0,.03,0,.03,0Z"/>
      <path class="cls-50" d="M2514.43,256.98c-2.67-2.46-5.34-4.92-8-7.37,18.53-.15,37.06-.25,55.58-.52,3.78-.05,7.12.77,10.16,2.93-.27,17.8,9.66,33.95,8.51,51.9-2.85-1.93-5.7-3.86-8.56-5.79-.82-.82-1.63-1.64-2.44-2.46-5.77-6.5-7.11-14.64-8.33-22.76-1.23-8.17-5.84-11.59-14.06-11.68-9.98-.11-20.26,1.45-29.64-3.67-1.07-.19-2.15-.38-3.22-.57Z"/>
      <path class="cls-89" d="M1804.78,287.57c15.33,12.01,30.84,23.8,45.94,36.1,9.82,8,19.03,16.74,28.52,25.14-10.68,3.47-21.66,1.42-32.47,1.47-37.81.18-75.62-.16-113.42-.31-13.94-15.59-31.46-26.99-47.57-40.03-4.54-3.67-9.52-6.77-12.97-11.61,4.12-4.35,9.49-2.56,14.32-2.58,34.38-.15,68.76-.04,103.13-.11,6.22-.01,13.58,1.55,14.53-8.07Z"/>
      <path class="cls-74" d="M2054.8,433.55c1.42,7.78-.17,10.82-6.69,10.05-13.25-1.57-4.29-12.44-7.64-18.36-2.73-4.83,2.04-6.7,6.94-6.42,13.33.76,2.2,12.71,7.38,14.74Z"/>
      <path class="cls-97" d="M522.78,350.48c2.19,4.48,4.83,8.8,6.42,13.48,1.24,3.64,8.34,8.08-.85,11.48-6.51,2.41-11.38,3.8-15.88-4.02-4.7-8.15-6.13-14.63,2.23-20.78,2.61-2.62,5.36-2.3,8.18-.37l-.11.21Z"/>
      <path class="cls-94" d="M522.89,350.27c-2.73.12-5.46.25-8.18.37-1.03-.14-2.06-.28-3.09-.42,3.42-7.64,2.45-15.93,3.7-23.88.66-4.23,1.89-9.75,8.23-8.44,6.45,1.34,3.14,5.99,2.54,9.74-1.21,7.52-2.15,15.09-3.2,22.64Z"/>
      <path class="cls-130" d="M1779.78,430.2c2.29-3.77-5.6-11.38,5.49-11.5,9.21-.1,9.14,6.06,8.42,11.61-.63,4.82,5.09,13.51-6.85,13.33-12.06-.18-4.36-9.17-7.05-13.44Z"/>
      <path class="cls-39" d="M2046.99,349.94c-22,.08-43.99.15-65.99.23-1.97-1.3-3.83-3.05-4.11-5.27-2.15-17.25-7.75-34.43-1.57-51.93,24.83,17.81,49.95,35.27,71.67,56.96Z"/>
      <path class="cls-93" d="M1975.33,292.98c1.89,19.07,3.79,38.13,5.68,57.2,0,0-.7,1.13-.7,1.13-3.46,1.42-6.91,2.6-10.25-.27,0,0-.35-1.2-.35-1.2-1.62-22.5-6.26-44.78-4.71-67.5,2.38,1.72,4.76,3.44,7.14,5.16,1.06,1.83,2.12,3.66,3.19,5.48Z"/>
      <path class="cls-45" d="M1970.06,351.03c3.42.09,6.84.18,10.25.27-2.44,9.91-6.83,18.07-17.5,21.59-3.06,1.01-6.09,3.47-8.25-.01-1.89-3.04-.11-7.28,3.09-7.65,8.94-1.05,9.22-8.7,12.41-14.2Z"/>
      <path class="cls-68" d="M1348.44,351.03c6.32-.28,12.64-.55,18.96-.83,13.83-6,27.67-5.97,41.51,0,0,0-.09.17-.08.17-.18,4.19-.38,8.26-6.28,8.23-16.22-.07-32.43,0-48.65-.07-5.08-.02-5.42-3.71-5.45-7.5Z"/>
      <path class="cls-104" d="M1408.91,350.2c-13.84,0-27.67,0-41.51,0,.01-6.52,3.55-8.37,9.69-8.14,10.5.4,21.03.18,31.55.22.09,2.64.18,5.28.27,7.91Z"/>
      <path class="cls-18" d="M2264.38,350.45c-.61,5.72-3.65,9.15-9.53,7.87-5.11-1.12-.51-5-1.29-7.49,0,0-.01-.29-.01-.29,3.57-3.11,7.22-2.95,10.95-.31l-.13.22Z"/>
      <path class="cls-44" d="M1026.27,350.19c-1.7-22.85,3.36-45.41,2.9-68.21,15.85,14.26,31.51,28.74,47.61,42.71,9.25,8.02,18.53,15.95,26.51,25.26-25.67.08-51.35.16-77.02.24Z"/>
      <path class="cls-43" d="M1196.92,298.74c.89,2.46,1.77,4.93,2.66,7.39-13.34-1.59-18.54,3.8-16.71,17.38,1.18,8.75.18,17.8.16,26.71-3.75,1.86-7.49,5.12-11.23-.02.24-10.82.5-21.64.73-32.45.38-18.09,1.11-18.86,18.69-19.64,1.9.21,3.8.42,5.7.63Z"/>
      <path class="cls-107" d="M2318.52,104.59c-.93-24.16-20.1-13.87-32.22-16.89-26.11-19.87-52.22-39.74-78.33-59.61,43.9-.13,87.8-.3,131.7-.34,3.12,0,7.04-.11,9.24,1.57,25.52,19.59,53.73,35.67,77.1,58.07-20.57.15-41.14.25-61.71.49-6.03.07-12.88-.57-10,9.36,1.79,6.15-2.47,6.62-7.02,6.69-9.59.15-19.18.43-28.76.66Z"/>
      <path class="cls-40" d="M1004.06,128.97c-1.64-.29-3.27-.57-4.91-.86-2.73-4.01-4.32-7.62,3.02-7.63,13.15-.02,26.29-.02,39.44.04,2.72.01,5.91.16,6.01,3.79.13,4.72-3.82,4.25-6.85,4.3-12.24.2-24.47.25-36.71.36Z"/>
      <path class="cls-114" d="M2264.5,350.23c-3.65.1-7.3.21-10.95.31,2.98-5.06-5.68-15.91,5.59-15.75,8.76.13,3.88,10,5.36,15.44Z"/>
      <path class="cls-28" d="M682.08,350.86c.51,2.62.78,5.32,1.58,7.85,1.08,3.44,3.16,7.5-.61,9.76-4.48,2.68-6.84-1.66-7.59-4.95-1.58-6.95-15.07-2.17-12.25-12.83,1.79-.18,3.59-.35,5.38-.53,4.57-2.52,9.11-3.67,13.49.4v.3Z"/>
      <path class="cls-20" d="M682.08,350.56c-4.5-.13-8.99-.26-13.49-.4.24-.39.39-.88.72-1.16,4.61-3.91-2.11-15.72,8.16-14.33,9.09,1.23,2.65,10.57,4.62,15.89Z"/>
      <path class="cls-13" d="M68.64,257.13c-1.8-2.55-3.59-5.1-5.39-7.65,8.12-.1,16.29.31,24.36-.42,10.06-.91,13.71,3.46,10.7,12.43-1.97,5.87-.16,12.75-4.96,17.75-2.72-1.17-4.53-3.16-5.44-5.97-.09-2.61-.17-5.22-.25-7.83-4.52-4.12-10.7-4.88-15.83-7.77-1.06-.18-2.12-.36-3.18-.54Z"/>
      <path class="cls-92" d="M71.82,257.67c5.62,1.9,16.43-6.67,15.83,7.77-11.13,9.2-10.58-5.13-15.83-7.77Z"/>
      <path class="cls-66" d="M2517.65,257.55c6.76-.09,13.53-.25,20.3-.26q25.82-.03,29.3,25.21c.62,4.41,1.61,8.77,2.43,13.16-18.15-11.62-36.39-23.11-52.03-38.12Z"/>
      <path class="cls-110" d="M352.7,88.31c1.82-.14,3.64-.36,5.46-.4q28.22-.52,26.71,26.96c-4.08,7.87-2.63,16.86-5.11,25.06-19.51-12.88-33.97-31.03-51.47-47.47,8.53-4.41,17.38.74,24.41-4.15Z"/>
      <path class="cls-119" d="M101.64,289.74c1.02.25,2.04.5,3.05.75,4.4,11.24,15.55,16.99,21.92,26.63-10.43.13-20.85.16-31.28.44-6.11.16-9.16-3.03-6.75-8.24,3.28-7.07-1.85-20.16,13.06-19.57Z"/>
      <path class="cls-131" d="M1708.54,54.83c6.21,3.78-3.31,18.04,11.04,16.39-7.29,5.32-10.74,2.94-11.02-5.51-.12-3.62-.02-7.25-.02-10.88Z"/>
      <path class="cls-131" d="M1719.61,57.42c-4.93-8.69-1.62-18.01-2.11-27.04,4.28,8.74,1.18,18.05,2.11,27.04Z"/>
    </g>
  </g>
</svg>